<?xml version="1.0" encoding="UTF-8"?>
<svg xmlns="http://www.w3.org/2000/svg" xmlns:xlink="http://www.w3.org/1999/xlink" viewBox="0 0 2005.4 2004.66">
  <defs>
    <style>
      .cls-1, .cls-2, .cls-3, .cls-4, .cls-5, .cls-6, .cls-7, .cls-8 {
        fill: none;
      }

      .cls-9 {
        fill: #fff;
      }

      .cls-10 {
        fill: #0099cb;
      }

      .cls-11 {
        fill: #b2bec3;
      }

      .cls-12 {
        fill: #dfe6e9;
      }

      .cls-13 {
        fill: #16191a;
      }

      .cls-14 {
        fill: #636e72;
      }

      .cls-15 {
        fill: #2d3436;
      }

      .cls-16 {
        clip-path: url(#clippath-1);
      }

      .cls-2 {
        stroke: #95e6ff;
      }

      .cls-2, .cls-3, .cls-4, .cls-5, .cls-6, .cls-7, .cls-8 {
        stroke-width: 6.25px;
      }

      .cls-3 {
        stroke: #879fb3;
      }

      .cls-4 {
        stroke: #7fcce5;
      }

      .cls-5 {
        stroke: #16b4e5;
      }

      .cls-6 {
        stroke: #0c7dad;
      }

      .cls-7 {
        stroke: #086d9a;
      }

      .cls-8 {
        stroke: #8bafc7;
      }

      .cls-17 {
        filter: url(#outer-glow-1);
      }
    </style>
    <clipPath id="clippath-1">
      <rect class="cls-1" x="2.95" y="755.24" width="2000" height="500" rx="186.29" ry="186.29"/>
    </clipPath>
    <filter id="outer-glow-1" filterUnits="userSpaceOnUse">
      <feOffset dx="0" dy="0"/>
      <feGaussianBlur result="blur" stdDeviation="15"/>
      <feFlood flood-color="#fff" flood-opacity=".75"/>
      <feComposite in2="blur" operator="in"/>
      <feComposite in="SourceGraphic"/>
    </filter>
  </defs>
  <g id="Layer_2" data-name="Layer 2">
    <g class="cls-16">
      <g>
        <g>
          <g vector-effect="non-scaling-stroke">
            <path class="cls-2" d="M333.41,2.83c-58.21,44.11-166.24,126.79-166.24,126.79-4.37,3.34-11.77,8.45-16.44,11.34l-13.05,8.21c-4.89,2.51-9.33,4.69-9.86,4.83s-5.95-2.08-10.92-4.42L4.32,96.6"/>
          </g>
          <g vector-effect="non-scaling-stroke">
            <path class="cls-2" d="M339.06,3.08c1.48,.98,1.13,1.48,.71,2.1s-4.34,3.86-8.7,7.21l-163.8,126.1c-4.35,3.36-8.27,6.73-8.7,7.48s2.05,6.06,4.5,10.13,4.75,7.71,5.1,8.07,6,1.51,11.43,2.37l220.59,34.76c5.43,.86,10.17,1.56,10.54,1.56s4.54-1.94,8.57-3.97,7.68-3.79,8.13-3.91,2.83,.45,4.33,.96,3.26,.94,3.91,.96,5.2-3.97,9.09-7.85L631.47,2.7"/>
          </g>
          <g vector-effect="non-scaling-stroke">
            <path class="cls-2" d="M638.83,3.83c-63.87,65.08-185.84,186.85-185.84,186.85-3.89,3.89-2.89,8.72,2.22,10.74l4.25,6.51c5.48-.5,14.44-1.31,19.92-1.8l56.39-4.66c5.48-.41,14.46-1.07,19.95-1.45l353.98-25.24c5.49-.4,14.46-1.04,19.95-1.43l100.98-6.92c5.49-.35,12.13-1.43,14.76-2.39s6.39-7.82,6.37-8.52-4.56-4.86-8.87-8.27L879.09,17.12c-4.3-3.43-9.18-7.22-10.86-8.41s-6.04-3.44-6.47-3.78,.96-1.42,1.29-1.58l.61-.28"/>
          </g>
          <g vector-effect="non-scaling-stroke">
            <path class="cls-2" d="M870.91,2.79c62.02,48.78,178.1,140.29,178.1,140.29,4.32,3.41,11.62,8.65,16.23,11.64l12.6,1.16c5.45-.77,13.89-3.48,18.76-6.03,0,0,181.2-94.71,276.36-144.13"/>
          </g>
          <g vector-effect="non-scaling-stroke">
            <line class="cls-4" x1="1372.96" y1="5.73" x2="1378.89" y2="3.08"/>
          </g>
          <g vector-effect="non-scaling-stroke">
            <path class="cls-4" d="M1388.26,3.08c1.08,.73,2.05,1.14,2.9,1.25"/>
          </g>
          <g vector-effect="non-scaling-stroke">
            <path class="cls-2" d="M1391.17,4.32c-101.9,52.69-296.61,153.83-296.61,153.83-4.88,2.54-10.59,5.85-12.68,7.37s.6,8.29,1.64,9.4,8.29,5.57,13.1,8.24l357.04,198.29c4.81,2.67,12.37,5.83,16.82,7.02s15.06-3.72,15.29-3.98,1.73-5.46,3.13-10.78L1586.55,3.08"/>
          </g>
          <g vector-effect="non-scaling-stroke">
            <path class="cls-2" d="M1593.29,3.2l-97.51,371.5c-1.4,5.32-2.45,10.75-2.35,12.07s8.03,.13,13.32-1.39l389.03-112.24c5.28-1.52,9.9-2.91,10.25-3.09s3.1-3.82,5.6-7.38,4.73-7.07,4.94-7.8-3.25-5.93-6.65-10.26L1720.04,3.08"/>
          </g>
          <g vector-effect="non-scaling-stroke">
            <path class="cls-2" d="M1726.97,2.54c62.89,78.69,181.06,229.33,181.06,229.33,3.39,4.33,9.66,10.71,13.92,14.19l14.35,2.47c5.36-1.22,13.42-4.83,17.91-8.01,0,0,31.98-22.65,47.98-33.1"/>
          </g>
          <g vector-effect="non-scaling-stroke">
            <line class="cls-4" x1="2002.45" y1="214.04" x2="1999.32" y2="217.63"/>
          </g>
          <g vector-effect="non-scaling-stroke">
            <path class="cls-2" d="M1999.32,217.63l-45.5,31.69c-4.51,3.14-8.59,6.31-9.07,7.04s.74,7.15,1.76,12.56l-3.11,10.82c-3.9,3.88-7.49,7.42-7.98,7.87s-.89,6.52-.89,12.02v319.58c0,5.5,.14,10.5,.32,11.11s4.39,4.98,8.11,9.02l3.29,16.69c-1.88,5.17-3.62,9.92-3.86,10.55s2.24,6.23,4.81,11.09l52.78,99.8"/>
          </g>
          <g vector-effect="non-scaling-stroke">
            <line class="cls-4" x1="1999.98" y1="777.48" x2="2002.45" y2="784.7"/>
          </g>
          <g vector-effect="non-scaling-stroke">
            <path class="cls-2" d="M2002.23,795.75c-20.36-37.26-56.01-103.18-56.01-103.18-2.62-4.84-5.96-12.18-7.43-16.32s-5.85-6.3-6.2-6.05-1.29,5.65-1.99,11.1l-71.39,554.66c-.71,5.45-1.79,14.3-2.41,19.65s-2.97,21.94-4.41,24.81,4.74,9,5.15,9.33,1.8,5.84,2.85,11.07,2.03,9.83,2.18,10.2,4.31,3.98,8.58,7.44l131.48,106.86"/>
          </g>
          <g vector-effect="non-scaling-stroke">
            <path class="cls-4" d="M2002.04,1432.39l-135.68-108.66c-4.29-3.44-8.25-6.44-8.78-6.68s-4.55,.81-7.69,1.89-6.03,2.17-6.44,2.41-2.96,5.34-5.22,10.35l-186.88,412.76c-2.27,5.01-4.44,10.86-4.83,13.01s9.04-2.45,13.65-5.45l342.29-222.59"/>
          </g>
          <g vector-effect="non-scaling-stroke">
            <path class="cls-8" d="M2002.95,1537.21l-344.13,224.39c-4.61,3-8.73,5.9-9.17,6.44s-.47,3.87-.38,5.86-1.32,7.83-1.31,8.77,5.7,4.21,10.74,6.42l223.5,97.89c5.04,2.21,9.76,4.06,10.49,4.12s3.19-1.97,4.38-3.28,2.51-2.63,2.94-2.93,3.97-.68,6.7-.92,9.06-7.36,11.88-12.09c0,0,53.34-89.59,83.38-138.26"/>
          </g>
          <g vector-effect="non-scaling-stroke">
            <path class="cls-8" d="M2002.7,1744.27l-76.88,129.91c-2.8,4.73-5.21,9.26-5.34,10.05s-.04,6.87-1.12,12.26l-17.23,13.67c-5.49,.4-10.38,.41-10.88,.02s-6.52,.06-11.97,.8l-508.22,69.24c-5.45,.74-10.44,1.62-11.1,1.94s-5.25,4.3-9.91,7.22l-16.38,3c-5.13-1.98-9.76-3.9-10.29-4.27s-6.54,.44-11.93,1.53l-46.72,9.42"/>
          </g>
          <g vector-effect="non-scaling-stroke">
            <line class="cls-4" x1="1264.73" y1="1999.08" x2="1250.49" y2="2001.55"/>
          </g>
          <g vector-effect="non-scaling-stroke">
            <line class="cls-4" x1="1227.85" y1="2001.55" x2="1219.33" y2="1999.98"/>
          </g>
          <g vector-effect="non-scaling-stroke">
            <path class="cls-3" d="M1219.33,1999.98l84.95-16.15c5.4-1.03,11.35-2.52,13.22-3.32s-7.45-4.7-12.72-6.28l-615.26-184.24c-5.27-1.58-10.09-2.88-10.72-2.89s-4.75,2.43-8.16,4.47-14.42,1.65-15.16,1.7-4.53,5-7.51,9.62l-128.62,198.88"/>
          </g>
          <g vector-effect="non-scaling-stroke">
            <path class="cls-3" d="M513.65,2001.11c44.24-71.84,130.02-205.39,130.02-205.39,2.97-4.63,5.53-9.17,5.68-10.1s-1.35-2.73-1.58-2.85-2.71-.39-4.96-.53-12.57,1.08-18,1.93c0,0-410.49,64.28-620.7,96.94"/>
          </g>
          <g vector-effect="non-scaling-stroke">
            <path class="cls-3" d="M3.98,1877.23c2.08-2.64,3.19-3.07,4.55-3.6s6.92-1.65,12.35-2.5l605.51-94.53c5.43-.85,12.6-3.59,15.92-6.09s-4.88-14.62-8.92-18.36l-183.01-169.19c-4.04-3.73-7.89-7.04-8.55-7.34s-5.94,.91-10.3,1.92-15.48-4.34-16.18-4.61-6.21,2.66-10.85,5.62L4.38,1833.39"/>
          </g>
          <g vector-effect="non-scaling-stroke">
            <path class="cls-3" d="M3.98,1827.27c4.35-4.25,16.47-12.42,16.47-12.42,4.56-3.08,12.08-8.01,16.72-10.97l363.16-231.47c4.64-2.95,8.74-5.68,9.1-6.05s1.22-5.61,1.77-10.47,.99-9.12,.98-9.47-2.45-5.17-5.06-10.01l-204.27-379.99c-2.6-4.84-5.18-9.22-5.73-9.73s-4.02-.54-6.08-.39-8.09-.69-8.98-.58-3.67,6.01-5.49,11.2L2.95,1652.03"/>
          </g>
          <g vector-effect="non-scaling-stroke">
            <line class="cls-4" x1="3.98" y1="1628.21" x2="6.19" y2="1619.03"/>
          </g>
          <g vector-effect="non-scaling-stroke">
            <path class="cls-3" d="M6.19,1619.03l164.49-468.14c1.82-5.19,3.36-9.87,3.41-10.41s-1.41-4.19-2.6-7.11-.68-11.88-.76-12.66-5.33-4.29-10.14-6.95L3.98,1027.1"/>
          </g>
          <g vector-effect="non-scaling-stroke">
            <path class="cls-8" d="M3.98,1019.3l157.76,86.62c4.82,2.65,11.37,5.26,14.56,5.8s5.55-12.38,5.45-17.88l-5.51-304.82c-.1-5.5-.4-14.49-.67-19.99l-1.14-57.58c-.15-5.5-.48-10.61-.74-11.35s-4.37-3.16-7.45-4.89-7.77-10.69-8.34-11.43-7.09,.15-12.43,1.47L4.13,720.18"/>
          </g>
          <g vector-effect="non-scaling-stroke">
            <path class="cls-4" d="M3.98,714.84l143.77-37.45c5.32-1.39,10.06-2.73,10.54-2.99s2.29-3.06,3.59-5.12,6.85-6.25,7.34-6.72,.56-6.58,.24-12.07l-26.43-447.55c-.32-5.49-1.03-11.46-1.57-13.26s-5.78,6.33-8.24,11.25L10.82,446.03c-2.46,4.92-4.73,9.2-5.05,9.52s-1.35-.72-1.51-.98l-.28-.47"/>
          </g>
          <g vector-effect="non-scaling-stroke">
            <path class="cls-4" d="M3.6,445.33l126.1-253.19c2.45-4.92,4.56-9.38,4.68-9.9s-2.12-5.84-4.48-10.73-4.48-9.16-4.7-9.47-5.12-2.84-10.08-5.22L3.98,103.59"/>
          </g>
          <g vector-effect="non-scaling-stroke">
            <path class="cls-4" d="M417.44,229.96c-5.52-4.37-6.07-7.27-6.76-10.82s-1.48-7.11-1.77-7.92-6.53-2.42-11.97-3.27l-217.84-34.3c-5.43-.86-10.25-1.54-10.71-1.51s-5.12,3.2-9.54,6.48l-.27,.2c-4.42,3.28-8.33,6.33-8.68,6.77s-.33,6.36,0,11.85l26.48,446.37c.33,5.49,1.33,12.11,2.22,14.71s7.95,3.81,8.46,3.61,3.54-5.22,6.15-10.06L413.51,242.67c2.61-4.84,4.82-9.47,4.93-10.29s.19-1.48-1-2.42"/>
          </g>
          <g vector-effect="non-scaling-stroke">
            <path class="cls-2" d="M464.41,216.19c153.4,43.84,450.38,129.68,450.38,129.68,5.28,1.53,10.03,2.81,10.55,2.84s4.64-1.86,8.22-3.56,14.52-2.71,15.15-2.85,4.05-5.15,6.85-9.88l82.44-139.51c2.8-4.74,5.64-11.32,6.32-14.64s-12.94-5.02-18.42-4.63l-550.71,39.24c-5.49,.39-10.93,1.07-12.1,1.51s-2.12,.8,1.31,1.8"/>
          </g>
          <g vector-effect="non-scaling-stroke">
            <line class="cls-4" x1="1122.15" y1="307.5" x2="1141.36" y2="354.37"/>
          </g>
          <g vector-effect="non-scaling-stroke">
            <path class="cls-2" d="M1141.36,354.37l46.19,113.55c2.07,5.09,4.16,9.71,4.63,10.26s4.65,.85,7.68,.74,5.9-.13,6.38-.05,3.72,3.1,6.46,5.92,5.45,5.4,6.03,5.72,6.46-1.24,11.67-3l223.9-75.69c5.21-1.76,9.9-3.5,10.42-3.87s1.38-3.31,1.67-5.16,.44-3.94,.32-4.65-5.28-4.12-10.09-6.79l-361.64-201.39c-4.8-2.68-11.95-4.43-15.89-3.9s-2.02,13.78,.06,18.88c0,0,26.74,65.59,43,102.56"/>
          </g>
          <g vector-effect="non-scaling-stroke">
            <path class="cls-5" d="M1141.36,354.37c-2.96-17.09-9.36-32.71-19.2-46.87"/>
          </g>
          <g vector-effect="non-scaling-stroke">
            <path class="cls-4" d="M990.16,377.41c22.55,12.84,45.63,24.62,69.26,35.32"/>
          </g>
          <g vector-effect="non-scaling-stroke">
            <path class="cls-2" d="M1059.42,412.73l108.24,55.63c4.89,2.51,10.35,4.85,12.13,5.2s-.65-8.75-2.75-13.84l-105.65-255.59c-2.1-5.08-4.06-9.59-4.36-10.01s-4.63-2.05-8.55-3.28-7.77-2.2-8.57-2.15-4.47,5.2-7.27,9.93l-81.28,137.39c-2.8,4.73-5.21,8.99-5.36,9.47s1.25,5.3,2.74,9.66,2.91,8.26,3.16,8.67,5.3,2.96,10.29,5.28l17.97,8.32"/>
          </g>
          <g vector-effect="non-scaling-stroke">
            <path class="cls-5" d="M1059.42,412.73c-21.77-14.36-44.86-26.14-69.26-35.32"/>
          </g>
          <g vector-effect="non-scaling-stroke">
            <path class="cls-4" d="M921.18,355.09c-156.51-45.56-460.25-132.82-460.25-132.82-5.29-1.52-10.2-2.74-10.92-2.7s-3.94,3.72-6.2,6.88-4.27,6.13-4.47,6.6,.95,6.11,2.28,11.44l48.3,193.46c1.33,5.34,3.38,10.91,4.55,12.38l1.67-.43,.08-.02c.08-.03,3.2-.4,6.93-.83s13.27,3.29,13.7,3.46,5.99-.84,11.36-2.03l380.92-84.51c5.37-1.19,10.92-2.83,12.33-3.63s1.66-5.32,1.36-5.89-.54-1.04-1.65-1.37"/>
          </g>
          <g vector-effect="non-scaling-stroke">
            <path class="cls-4" d="M423.87,237.49c-75.03,139.52-219.76,409.52-219.76,409.52-2.6,4.85-5.15,10.35-5.67,12.22s8.28-2.59,12.89-5.59l264.68-172.32c4.61-3,8.72-5.85,9.13-6.33s1.13-5.01,1.7-8.65-1.66-17.54-2.99-22.88l-48.9-196.12c-1.34-5.34-2.52-9.93-2.63-10.21s-1.86-1.52-3.43-2.28-2.85-1.38-5.02,2.63"/>
          </g>
          <g vector-effect="non-scaling-stroke">
            <path class="cls-2" d="M1926.72,629.94V299.95c0-5.5-.25-10.64-.56-11.41s-4.08-2.5-6.55-3.54-7.29-7.46-7.91-8.05-6.92,.6-12.21,2.13l-386.13,111.28c-5.28,1.52-10.16,3.2-10.83,3.72s-.61,5.21-.15,8.53,1,6.45,1.2,6.95,5.11,3.56,9.89,6.24,21.44,11.69,26.29,14.3l370.46,199.03c4.84,2.6,10.54,5.06,12.65,5.46s3.84,.72,3.84-4.63"/>
          </g>
          <g vector-effect="non-scaling-stroke">
            <path class="cls-4" d="M1117.78,917.09c1.5,.84,2.12,.39,2.87-.16s1.43-1.14,1.51-1.32,1.03-5.07,2.05-10.48l70.66-376.17c1.02-5.41,1.73-10.48,1.58-11.28s-5.05-4.96-9.21-8.56l-4.82-11.88c.46-5.48,.84-10.7,.84-11.6s-5.49-4.39-10.4-6.88l-203.23-102.76c-4.91-2.48-9.49-4.61-10.17-4.72s-3.55,1.78-5.18,3.21-3.25,3.01-3.6,3.53,.02,3.7,.53,5.7,4.26,14.59,5.87,19.85l150.28,491.08c1.61,5.26,3.31,11.72,3.78,14.35s.84,4.79,6.65,8.07"/>
          </g>
          <g vector-effect="non-scaling-stroke">
            <path class="cls-4" d="M591.28,649.24c3.48,2.69,5.26,1.77,7.44,.64s7.35-5,11.5-8.62l295.04-257.39c4.14-3.62,8.48-7.87,9.64-9.45s-8.68-.49-14.05,.71l-365.93,81.29c-5.37,1.19-10.36,2.6-11.1,3.12s-1,4.89-.92,7.71-1.9,10.49-1.98,10.89,1.52,5.67,3.26,10.89l49.67,148.47c1.75,5.22,3.56,9.98,4.03,10.58s4.3,.91,6.79,.78,4.86-.21,5.27-.15,.74,.1,1.35,.56"/>
          </g>
          <g vector-effect="non-scaling-stroke">
            <path class="cls-4" d="M607.23,675.4c162.4,83.94,478.34,247.28,478.34,247.28,4.89,2.53,9.46,4.69,10.16,4.81s4-2.22,6.14-4.13,4.17-3.95,4.51-4.52-1.04-6.51-2.65-11.77l-157.8-515.44c-1.61-5.26-3.16-9.95-3.44-10.43s-4.37-2.2-7.93-3.43-6.98-2.26-7.6-2.3-5.36,3.62-9.51,7.24l-303.03,264.57c-4.14,3.62-8.59,8.12-9.87,10.01s.28,8.35,.42,8.91-.38,3.18-.6,4.72-.4,2.79,2.87,4.48"/>
          </g>
          <g vector-effect="non-scaling-stroke">
            <path class="cls-2" d="M1533.77,809.36c61.92,58.36,177.96,168.72,177.96,168.72,3.99,3.79,8.42,7.22,9.85,7.63s-.36-6.29-2.49-11.35l-226.14-538.42c-2.12-5.07-4.22-9.66-4.67-10.19s-5-1.57-8.59-2.3-11.49-7.12-12.09-7.5-6.58,1.15-11.8,2.89l-223.95,75.04c-5.21,1.76-10.91,4.27-12.67,5.59s-2.9,7.77-2.79,8.2,4.03,4.44,8.02,8.24c0,0,203.5,193.69,309.36,293.47"/>
          </g>
          <g vector-effect="non-scaling-stroke">
            <path class="cls-2" d="M1731.4,984.07c1.44,.94,2.09,.53,2.88,.02s1.46-.95,1.48-.99,2.28-4.05,4.97-8.84l135.77-240.39c2.71-4.78,7.14-12.62,9.82-17.42l24.1-43.69c2.62-4.83,4.88-9.23,5.02-9.76s-.99-4.76-1.97-8.28,.32-13.68,.27-14.5-5.38-4.35-10.23-6.96l-392.85-211.02c-4.85-2.6-9.15-4.84-9.57-4.97s-2.82,.9-4.41,2.05,.85,11.02,2.98,16.09l224.32,535.28c2.12,5.08,4.28,9.91,4.8,10.75s.95,1.52,2.61,2.63"/>
          </g>
          <g vector-effect="non-scaling-stroke">
            <path class="cls-4" d="M501.69,486.61l-5.43-2.31c-2.99-1.27-5.89-2.38-6.45-2.45s-5.66,2.88-10.27,5.88l-273.7,178.04c-4.61,3-8.71,5.8-9.1,6.22s-.72,4.37-.72,7.49-.1,6.08-.21,6.57-1.82,2.63-2.89,4.01,2.39,8.54,5.6,13l198.11,274.9c3.22,4.46,6.17,8.38,6.56,8.72s3.35-.83,5.41-2.67,5.66-13.7,6.67-19.11l86.43-465.03c1-5.41,1.71-10.48,1.58-11.27s-.25-1.44-1.6-2"/>
          </g>
          <g vector-effect="non-scaling-stroke">
            <path class="cls-4" d="M510.78,489.67c-29.66,159.75-87.05,469.39-87.05,469.39-1,5.41-1.78,10.08-1.72,10.39l.22,.04s.01,0,.02,0c1,.09,141.43-281.83,141.43-281.83,2.45-4.92,4.56-9.27,4.67-9.66s-.18-4.66-.45-8.63,3.19-14.11,3.32-14.56-1.45-5.91-3.18-11.13l-48.1-144.92c-1.73-5.22-4.17-11.19-5.42-13.26s-2.27-3.77-3.75,4.18"/>
          </g>
          <g vector-effect="non-scaling-stroke">
            <path class="cls-4" d="M1203.37,521.83l-72.35,385.56c-1.01,5.41-1.84,10.18-1.84,10.61s1.64,3.39,3.12,5.74,3.18,4.67,3.77,5.14,6.76-.77,12.05-2.3l249.55-72.05c5.28-1.53,10.09-3.1,10.68-3.49s1.86-4.38,2.68-7.29,6.3-9.61,6.71-10.39-2.67-6.48-5.74-11.04l-197.39-293.36c-3.07-4.56-6.64-9.16-7.94-10.22s-2.36-1.92-3.29,3.08"/>
          </g>
          <g vector-effect="non-scaling-stroke">
            <path class="cls-4" d="M1325.72,622.07l-87.28-83.07c-3.98-3.79-10.02-9.02-13.41-11.62s4.86,11.64,7.93,16.21l186.15,276.65c3.07,4.56,5.9,8.59,6.28,8.95s5.79,2.29,10.85,4.19,11.96,14.9,11.98,15.28-.47,2.3-.77,3.48,.46,4.61,.68,4.98,5.1,3.08,9.99,5.59l243.39,125.07c4.89,2.51,9.08,4.64,9.31,4.73s1.74,.05,2.81-.11-3.11-5.08-7.1-8.87l-372.7-353.92c-3.99-3.79-7.34-6.97-7.46-7.07s-.48-.34-.52-.37-.08-.05-.14-.11"/>
          </g>
          <g vector-effect="non-scaling-stroke">
            <path class="cls-2" d="M1842.94,1283.13c1.21,.67,2.73,.23,3.39-.98l.15-.28c.08-.34,.71-5.08,1.4-10.54l75.59-589.79c.7-5.45,.65-11.01-.11-12.35s-5.69,5.17-8.39,9.96l-167.5,296.47c-2.71,4.79-5.04,9.26-5.18,9.95s2.22,6.3,4.27,11.25-2.24,19.13-2.4,19.62,1.58,6.01,3.48,11.18l88.93,242.89c1.89,5.17,3.8,9.96,4.26,10.66s.83,1.26,2.11,1.95"/>
          </g>
          <g vector-effect="non-scaling-stroke">
            <path class="cls-4" d="M579.1,685.27l-.77-.66c-.42-.36-2.26-1.08-4.08-1.61l-1.11,1.32-.16,.19c-.14,.24-2.26,4.47-4.71,9.39l-140.87,282.53c-2.45,4.92-4.51,9.66-4.58,10.54s2.49,3.57,4.02,4.95,4.53,6.75,5.07,7.38,5.42,.48,9.05-.05,17.68-2.18,23.15-2.78l597.52-65.22c5.47-.6,11.57-1.69,13.56-2.44s-6.52-6.58-11.41-9.11l-452.62-234.06c-4.89-2.53-9.41-4.69-10.06-4.81s-4.7,1.75-7.83,3.28-12.8,1.8-13.12,1.71-.58-.16-1.05-.56"/>
          </g>
          <g vector-effect="non-scaling-stroke">
            <path class="cls-8" d="M191.4,1107.17l6.4,3.58c3.52,1.97,6.87,3.69,7.43,3.83s5.93-2.39,10.77-5l169.66-91.46c4.84-2.61,9.36-5.47,10.05-6.36s-1.25-4.6-1.53-5.16,.7-4.44,1.69-7.28,1.86-5.61,1.91-6.17-3.14-5.51-6.35-9.97l-198.05-274.68c-3.22-4.46-7.14-9.07-8.72-10.23s-3.49,7.43-3.6,12.93l.72,35.56c.19,5.5,.48,14.49,.63,19.99l3.67,147.35c.08,5.5,.22,14.5,.31,20l3.19,160.43c.12,5.5,.36,10.47,.53,11.05s.31,1.06,1.28,1.6"/>
          </g>
          <g vector-effect="non-scaling-stroke">
            <path class="cls-4" d="M1133.46,943.7c-1.94,3.14-2.92,4.2-4.12,5.49s-2.45,2.79-2.78,3.34,.87,6.47,2.31,11.78l108.88,402.46c1.44,5.31,3.05,10.25,3.59,10.98s3.98,.9,4.61,.64,2.99-5.92,4.74-11.13l163.08-486.62c1.75-5.21,2.49-12.62,1.65-16.46s-14.72-3.14-20-1.61l-231.12,66.65c-5.29,1.52-13.06,3.27-17.28,3.9s-7.67,1.14-13.54,10.57"/>
          </g>
          <g vector-effect="non-scaling-stroke">
            <path class="cls-8" d="M1558.94,923.62c-25.67-14.63-51.98-28.07-78.94-40.31"/>
          </g>
          <g vector-effect="non-scaling-stroke">
            <path class="cls-4" d="M1480,883.31l-26.25-14.5c-4.81-2.66-9.26-4.95-9.87-5.09s-4.14,1.31-6.67,2.48-10.35,2.47-11.03,2.72-3.07,5.95-4.82,11.16l-161.96,483.62c-1.75,5.22-3.31,11.22-3.47,13.33s8.71-3.19,13.04-6.58l439.86-343.91c4.33-3.39,8.59-7.52,9.47-9.19l-1.07-1.35-.1-.13c-.13-.13-1.54-1.98-3.13-4.12s-3.6-9.58-3.81-10.12-5.33-3.52-10.23-6.02l-141.04-71.99"/>
          </g>
          <g vector-effect="non-scaling-stroke">
            <path class="cls-6" d="M1480,883.31c24.9,16.28,51.21,29.72,78.94,40.31"/>
          </g>
          <g vector-effect="non-scaling-stroke">
            <path class="cls-4" d="M434.34,1013.96c260.93,124.69,773.69,369.96,773.69,369.96,4.96,2.37,9.56,4.4,10.22,4.5s4.68-2.73,7.79-5.32,5.96-5.16,6.33-5.72-.82-6.54-2.26-11.85l-107.91-399.19c-1.44-5.31-2.96-10.17-3.39-10.79s-5.01-3.63-8.49-6.62-14.39-12.93-14.8-13.18-6.1,.08-11.57,.66l-63.41,6.6c-5.46,.67-14.4,1.7-19.87,2.3l-555.09,61.02c-5.47,.6-11.3,2.06-12.95,3.24s-3.01,2.14,1.7,4.39"/>
          </g>
          <g vector-effect="non-scaling-stroke">
            <path class="cls-8" d="M218.38,1145.08c75.25,69.01,218.69,199.91,218.69,199.91,4.06,3.71,10.56,7.77,14.43,9.02s5.3-10.3,4.55-15.75l-41.31-301.03c-.74-5.45-1.54-10.35-1.76-10.89s-3.86-2.59-6.89-4.02-5.95-2.68-6.48-2.78-5.81,2.42-10.65,5.03l-169.85,91.67c-4.84,2.61-9.08,4.98-9.42,5.25s-.44,4.7,.09,8.93,.97,7.68,8.59,14.65"/>
          </g>
          <g vector-effect="non-scaling-stroke">
            <path class="cls-4" d="M1584.39,1555.86c.81-.69,1.14-1.01,1.55-1.41s3.91-3.91,7.79-7.81l224.42-225.15c3.89-3.89,7.33-7.58,7.65-8.19s-.33-6.46-.86-11.56,8.07-16.59,8.47-17.22-1.28-6.65-3.18-11.81l-88.72-241.65c-1.9-5.16-3.89-9.9-4.44-10.52s-3.47-.4-4.69,.17-4.19,7.98-5.69,13.27l-140.19,494.8c-1.5,5.29-3.35,11.72-4.1,14.29s-3.13,11.26-3.33,13.52-.37,4.1,5.33-.73"/>
          </g>
          <g vector-effect="non-scaling-stroke">
            <path class="cls-8" d="M564.89,1160.38c93.93,97.26,275.11,284.22,275.11,284.22,3.83,3.95,7.45,7.45,8.06,7.77s6.77-.15,12.25-.52l10.51,3.53c4.02,3.76,7.76,7.24,8.31,7.74s6.75-.22,12.15-1.28l310.41-61.18c5.4-1.06,10.97-2.51,12.38-3.21s-6.01-5.38-10.97-7.76l-753.52-360.46c-4.96-2.37-11.12-4.92-13.69-5.66s4.93,8.55,8.76,12.5c0,0,77.63,80.18,120.26,124.31"/>
          </g>
          <g vector-effect="non-scaling-stroke">
            <path class="cls-8" d="M787.66,1400.57c-116.49-120.57-343.14-353.96-343.14-353.96-3.83-3.95-8.8-9.04-11.04-11.33s-8.2-7.62-9.81-8.49-2.13,6.19-1.85,8.72,1.96,14.97,2.71,20.42l37.53,273.59c.74,5.45,1.39,12.51,1.45,15.69s8.34,12.85,11.32,15.66,4.03,14.73,4.23,15.61,6.38,3,11.74,4.25l337.44,78.62c5.36,1.25,11.47,2.23,13.59,2.19s-3.97-8.34-7.75-12.34c0,0-28.52-30.13-46.4-48.63"/>
          </g>
          <g vector-effect="non-scaling-stroke">
            <path class="cls-4" d="M1261.05,1385.77c-16.77,13.11,14.68,24.53,14.68,24.53,5.17,1.88,13.31,5.64,18.09,8.36l247.3,140.95c4.78,2.73,9.33,5.06,10.12,5.19s4.28-2.08,6.57-3.61,10.19-1.96,11.05-2.15,3.23-6.23,4.73-11.52l142.68-502.92c1.5-5.29,2.76-11.25,2.79-13.24s-8.51,3.08-12.84,6.47c0,0-292.97,229-445.15,347.95"/>
          </g>
          <g vector-effect="non-scaling-stroke">
            <path class="cls-8" d="M442.11,1359.41l-228.34-208.47c-4.06-3.71-7.69-6.9-8.07-7.08l-.19,.18-.02,.02s2.09,4.02,4.69,8.87l202.79,378.43c2.62,4.84,5.93,9.48,7.37,10.32s3.82-5.91,4.7-11.34l21.35-131.8c.88-5.43,1.57-10.32,1.53-10.87s-2.68-4.99-4.98-8.99-.03-16.2,.06-16.95,.16-1.37-.88-2.32"/>
          </g>
          <g vector-effect="non-scaling-stroke">
            <path class="cls-4" d="M1583.02,1569.22c4.87,12.49-2.44,19.83-2.44,19.83-3.88,3.9-7.43,7.61-7.88,8.26s1.32,6.71,3.31,11.84l49.74,129.22c1.97,5.14,4.23,10.66,5.03,12.28s4.19,4.82,5.08,5.07,2.83-.97,2.92-1.1,2.14-4.58,4.41-9.59l187.41-413.64c2.27-5.01,4.23-10.06,4.35-11.22s-3.5-1.17-4.03-.94-5.15,4.6-9.04,8.49l-231.08,231.08c-3.89,3.89-7.33,7.56-7.65,8.16s-.58,1.09-.14,2.25"/>
          </g>
          <g vector-effect="non-scaling-stroke">
            <path class="cls-8" d="M830.94,1467.67c-115.49-27.1-336.87-78.61-336.87-78.61-5.36-1.25-13.93-1.8-19.05-1.24s-19.1,4.55-19.62,4.91-1.83,6.24-2.7,11.67l-19.71,122.55c-.87,5.43-1.44,10.54-1.26,11.36s4.33,3.39,7.43,5.13,9,9.86,9.57,10.43,6.86-.23,12.23-1.39l360.16-77.84c5.38-1.16,11.4-2.83,13.39-3.7s3.62-1.59-3.59-3.28"/>
          </g>
          <g vector-effect="non-scaling-stroke">
            <path class="cls-8" d="M907.35,1470.92c1.31,.33,1.85,.43,2.51,.56s5.65,.91,11.09,1.74l607.38,93.3c5.44,.84,9.98,1.5,10.11,1.47s.26-.31,.28-.41,0-.36-.05-.59-4.42-2.91-9.2-5.64l-237.93-135.79c-4.78-2.72-12.48-7-17.12-9.51-4.64-2.51-17.89-8.68-18.6-8.76s-6.25,2.8-11.18,5.26l-15.14-.77c-4.68-2.89-8.89-5.53-9.36-5.86s-4.32-.17-7.28,.25-17.31,3.11-22.7,4.17l-272.84,53.78c-5.4,1.06-11.43,2.62-13.41,3.45s-3.6,1.52,3.44,3.35"/>
          </g>
          <g vector-effect="non-scaling-stroke">
            <path class="cls-8" d="M909.1,1483.66l692.89,275.56c5.11,2.03,9.8,3.75,10.41,3.82s3.87-2.07,6.14-3.89,4.47-3.81,4.87-4.45-1.4-6.63-3.38-11.76l-52.31-134.86c-1.99-5.13-3.88-9.69-4.2-10.15s-4.74-2.92-8.61-5.17-7.96-14.03-8.28-14.76-6.48-2.23-11.92-3.07l-614.4-94.54c-5.44-.84-13.25-1.67-17.36-1.85s-7.47-.33,6.16,5.11"/>
          </g>
          <g vector-effect="non-scaling-stroke">
            <path class="cls-8" d="M450.01,1572.72l192.41,177.79c4.04,3.73,7.86,7.03,8.48,7.32s5.03-.65,8.36-1.48,12.94,.62,13.74,.61,4.61-5.06,7.55-9.71l159.42-252.69c2.93-4.65,5.57-9.61,5.86-11.01s-2.82-4.7-3.18-4.86-3.67,.13-6.5,.56-19.45,3.84-24.83,5l-348.14,75.25c-5.38,1.16-11.9,3.36-14.5,4.87s-4.73,2.76,1.33,8.36"/>
          </g>
          <g vector-effect="non-scaling-stroke">
            <path class="cls-8" d="M1017.08,1772.22c196.82,.56,580.89,3.51,580.89,3.51,5.5,.04,10.56-.12,11.25-.36s1.58-2.46,1.46-3.38-7.14-4.4-12.25-6.44l-709.82-282.08c-5.11-2.03-9.9-3.73-10.63-3.76s-4.96,2.96-8.31,5.38-15.04,2.81-15.74,2.9-4.36,5.05-7.29,9.71l-163.02,258.65c-2.93,4.65-5.58,9.52-5.88,10.82s7.61,2.64,13.1,2.88l64.61,1.68c5.5,.18,14.49,.32,19.99,.32,0,0,157.76-.07,241.65,.16"/>
          </g>
          <g vector-effect="non-scaling-stroke">
            <path class="cls-8" d="M683.36,1780.4c211.99,63.76,626.68,187.74,626.68,187.74,5.27,1.58,10.19,2.84,10.93,2.81s5.72-3.89,10.12-7.19l13.28-2.15c5.26,1.59,10.14,3.06,10.83,3.26s6-3,10.49-6.18l231.24-163.83c4.49-3.18,9.26-7.08,10.6-8.67s-8.81-2.76-14.31-2.73l-157.49-.69c-5.5-.08-14.5-.18-20-.22l-273.15-1.24c-5.5,.04-14.5-.13-19.99-.37l-31.32-.68c-5.49-.25-14.49-.46-19.99-.48l-240.55-.81c-5.5-.02-14.5-.13-20-.26l-116.68-.94c-5.5-.07-10.23-.07-10.5,0s-1.05,.84-1.27,1.32-.41,.86,1.09,1.32"/>
          </g>
          <g vector-effect="non-scaling-stroke">
            <path class="cls-8" d="M1886.63,1896.88l-235.03-102.88c-5.04-2.21-9.6-4.08-10.14-4.17s-4.75,1.18-8.3,2.19-13.29-2.43-13.97-2.62-5.97,3.01-10.45,6.19l-240.6,170.34c-4.49,3.18-8.32,5.97-8.52,6.22s-.18,1.27-.03,1.59,5.62-.14,11.07-.88l492.73-67c5.45-.74,10.47-1.39,11.15-1.45s6.69-.62,7.87-.78,5.13-1.72,6.55-2.73,2.58-1.84-2.33-4"/>
          </g>
          <g vector-effect="non-scaling-stroke">
            <line class="cls-5" x1="1357.82" y1="3.08" x2="1372.96" y2="5.73"/>
          </g>
          <g vector-effect="non-scaling-stroke">
            <path class="cls-5" d="M1399.19,3.08c-2.46,1.08-5.13,1.5-8.03,1.25"/>
          </g>
          <g vector-effect="non-scaling-stroke">
            <path class="cls-5" d="M2002.45,230.43c-1.41-3.93,.84-11.62-3.12-12.8"/>
          </g>
          <g vector-effect="non-scaling-stroke">
            <line class="cls-5" x1="2002.45" y1="772.21" x2="1999.98" y2="777.48"/>
          </g>
          <g vector-effect="non-scaling-stroke">
            <line class="cls-7" x1="6.19" y1="1619.03" x2="3.98" y2="1614.15"/>
          </g>
          <g vector-effect="non-scaling-stroke">
            <line class="cls-6" x1="1298.11" y1="2001.55" x2="1264.73" y2="1999.08"/>
          </g>
          <g vector-effect="non-scaling-stroke">
            <line class="cls-7" x1="1219.33" y1="1999.98" x2="1205.99" y2="2001.55"/>
          </g>
        </g>
        <path class="cls-11" d="M9.48,13.08c-.02-5.5,4.46-10,9.96-10.01l309.44-.23c5.5,0,6.42,2.72,2.04,6.04l-158.28,120.74c-4.37,3.34-11.77,8.45-16.44,11.34l-13.05,8.21c-4.89,2.51-9.33,4.69-9.86,4.83s-5.95-2.08-10.92-4.42L18.84,100.86c-4.98-2.34-9.06-8.76-9.08-14.26l-.27-73.52Z"/>
        <path class="cls-12" d="M325.45,8.88c4.38-3.33,9.23-6,10.79-5.93s3.15,.59,3.55,1.15-4.36,4.93-8.72,8.28l-163.8,126.1c-4.35,3.36-8.27,6.73-8.7,7.48s2.05,6.06,4.5,10.13,4.75,7.71,5.1,8.07,6,1.51,11.43,2.37l220.59,34.76c5.43,.86,10.17,1.56,10.54,1.56s4.54-1.94,8.57-3.97,7.68-3.79,8.13-3.91,2.83,.45,4.33,.96,3.26,.94,3.91,.96,5.2-3.97,9.09-7.85L624.39,9.77c3.89-3.89,8.74-6.81,10.76-6.5s.52,3.76-3.34,7.68l-178.81,179.74c-3.89,3.89-2.89,8.72,2.22,10.74l4.25,6.51c5.48-.5,14.44-1.31,19.92-1.8l56.39-4.66c5.48-.41,14.46-1.07,19.95-1.45l353.98-25.24c5.49-.4,14.46-1.04,19.95-1.43l100.98-6.92c5.49-.35,12.13-1.43,14.76-2.39s6.39-7.82,6.37-8.52-4.56-4.86-8.87-8.27L879.09,17.12c-4.3-3.43-9.18-7.22-10.86-8.41s-6.04-3.44-6.47-3.78,.96-1.42,1.29-1.58,2.24-.34,4.23-.42,7.16,2.64,11.48,6.04l170.24,134.11c4.32,3.41,11.62,8.65,16.23,11.64l12.6,1.16c5.45-.77,13.89-3.48,18.76-6.03L1364.09,10.35c4.88-2.54,10.21-5.21,11.84-5.94s5.07-1.33,7.65-1.33,5.15,.26,5.71,.57-2.12,2.75-7,5.28l-287.73,149.23c-4.88,2.54-10.59,5.85-12.68,7.37s.6,8.29,1.64,9.4,8.29,5.57,13.1,8.24l357.04,198.29c4.81,2.67,12.37,5.83,16.82,7.02s15.06-3.72,15.29-3.98,1.73-5.46,3.13-10.78L1584,12.75c1.4-5.32,4.07-9.64,5.92-9.61s2.23,4.42,.83,9.73l-94.97,361.83c-1.4,5.32-2.45,10.75-2.35,12.07s8.03,.13,13.32-1.39l389.03-112.24c5.28-1.52,9.9-2.91,10.25-3.09s3.1-3.82,5.6-7.38,4.73-7.07,4.94-7.8-3.25-5.93-6.65-10.26L1726.22,10.94c-3.4-4.32-4.62-7.98-2.71-8.13s6.26,3.26,9.69,7.57l174.84,221.49c3.39,4.33,9.66,10.71,13.92,14.19l14.35,2.47c5.36-1.22,13.42-4.83,17.91-8.01l39.69-27.51c4.56-3.07,8.35-4.1,8.42-2.28s-.58,4.12-1.44,5.11-5.25,4.37-9.77,7.51l-37.3,25.98c-4.51,3.14-8.59,6.31-9.07,7.04s.74,7.15,1.76,12.56l-3.11,10.82c-3.9,3.88-7.49,7.42-7.98,7.87s-.89,6.52-.89,12.02v319.58c0,5.5,.14,10.5,.32,11.11s4.39,4.98,8.11,9.02l3.29,16.69c-1.88,5.17-3.62,9.92-3.86,10.55s2.24,6.23,4.81,11.09l48.11,90.96c2.57,4.86,5.23,10.46,5.91,12.45s1.18,6.09,1.12,9.13-2.26,1.57-4.89-3.26l-51.23-94.4c-2.62-4.84-5.96-12.18-7.43-16.32s-5.85-6.3-6.2-6.05-1.29,5.65-1.99,11.1l-71.39,554.66c-.71,5.45-1.79,14.3-2.41,19.65s-2.97,21.94-4.41,24.81,4.74,9,5.15,9.33,1.8,5.84,2.85,11.07,2.03,9.83,2.18,10.2,4.31,3.98,8.58,7.44l123.72,100.55c4.27,3.47,7.63,7.89,7.46,9.84s-3.81,.72-8.1-2.72l-127.87-102.41c-4.29-3.44-8.25-6.44-8.78-6.68s-4.55,.81-7.69,1.89-6.03,2.17-6.44,2.41-2.96,5.34-5.22,10.35l-186.88,412.76c-2.27,5.01-4.44,10.86-4.83,13.01s9.04-2.45,13.65-5.45l333.9-217.14c4.61-3,8.5-3.7,8.63-1.56s-3.52,6.35-8.13,9.35l-335.76,218.93c-4.61,3-8.73,5.9-9.17,6.44s-.47,3.87-.38,5.86-1.32,7.83-1.31,8.77,5.7,4.21,10.74,6.42l223.5,97.89c5.04,2.21,9.76,4.06,10.49,4.12s3.19-1.97,4.38-3.28,2.51-2.63,2.94-2.93,3.97-.68,6.7-.92,9.06-7.36,11.88-12.09l78.17-129.73c2.86-4.7,5.38-6.14,5.58-3.21s-1.92,9.2-4.72,13.93l-71.78,121.31c-2.8,4.73-5.21,9.26-5.34,10.05s-.04,6.87-1.12,12.26l-17.23,13.67c-5.49,.4-10.38,.41-10.88,.02s-6.52,.06-11.97,.8l-508.22,69.24c-5.45,.74-10.44,1.62-11.1,1.94s-5.25,4.3-9.91,7.22l-16.38,3c-5.13-1.98-9.76-3.9-10.29-4.27s-6.54,.44-11.93,1.53l-36.91,7.44c-5.39,1.09-13.01,2.53-16.92,3.21s-11.62,1.23-17.12,1.23h-2.64c-5.5,0-11.92-.35-14.26-.78s.16-1.62,5.56-2.65l75.12-14.28c5.4-1.03,11.35-2.52,13.22-3.32s-7.45-4.7-12.72-6.28l-615.26-184.24c-5.27-1.58-10.09-2.88-10.72-2.89s-4.75,2.43-8.16,4.47-14.42,1.65-15.16,1.7-4.53,5-7.51,9.62l-123.19,190.48c-2.99,4.62-6.71,8.25-8.27,8.07s-.46-4.14,2.46-8.81l124.73-196.91c2.97-4.63,5.53-9.17,5.68-10.1s-1.35-2.73-1.58-2.85-2.71-.39-4.96-.53-12.57,1.08-18,1.93L13.98,1879.57c-5.43,.85-9.91,.67-9.94-.4s.93-2.87,2.15-4.02,9.26-3.17,14.69-4.02l605.51-94.53c5.43-.85,12.6-3.59,15.92-6.09s-4.88-14.62-8.92-18.36l-183.01-169.19c-4.04-3.73-7.89-7.04-8.55-7.34s-5.94,.91-10.3,1.92-15.48-4.34-16.18-4.61-6.21,2.66-10.85,5.62L12.82,1828.02c-4.64,2.95-8.53,3.99-8.64,2.31s2.63-5.37,6.1-8.19,22.25-15.31,26.89-18.27l363.16-231.47c4.64-2.95,8.74-5.68,9.1-6.05s1.22-5.61,1.77-10.47,.99-9.12,.98-9.47-2.45-5.17-5.06-10.01l-204.27-379.99c-2.6-4.84-5.18-9.22-5.73-9.73s-4.02-.54-6.08-.39-8.09-.69-8.98-.58-3.67,6.01-5.49,11.2L6.26,1642.6c-1.82,5.19-3.11,4.94-2.88-.55l.17-3.84c.24-5.49,.93-12.06,1.54-14.58s2.6-8.84,4.42-14.02l161.18-458.7c1.82-5.19,3.36-9.87,3.41-10.41s-1.41-4.19-2.6-7.11-.68-11.88-.76-12.66-5.33-4.29-10.14-6.95L12.73,1031.95c-4.81-2.66-8.75-6.6-8.75-8.74s3.94-1.74,8.77,.91l149,81.8c4.82,2.65,11.37,5.26,14.56,5.8s5.55-12.38,5.45-17.88l-5.51-304.82c-.1-5.5-.4-14.49-.67-19.99l-1.14-57.58c-.15-5.5-.48-10.61-.74-11.35s-4.37-3.16-7.45-4.89-7.77-10.69-8.34-11.43-7.09,.15-12.43,1.47L13.84,717.78c-5.34,1.32-9.74,1.2-9.79-.27s4.28-3.8,9.6-5.19l134.09-34.93c5.32-1.39,10.06-2.73,10.54-2.99s2.29-3.06,3.59-5.12,6.85-6.25,7.34-6.72,.56-6.58,.24-12.07l-26.43-447.55c-.32-5.49-1.03-11.46-1.57-13.26s-5.78,6.33-8.24,11.25L10.82,446.03c-2.46,4.92-4.73,9.2-5.05,9.52s-1.35-.72-1.51-.98-.37-2.44-.47-4.86,1.82-8.42,4.27-13.34l121.64-244.24c2.45-4.92,4.56-9.38,4.68-9.9s-2.12-5.84-4.48-10.73-4.48-9.16-4.7-9.47-5.12-2.84-10.08-5.22L13,107.91c-4.96-2.38-8.94-5.89-8.85-7.82s4.24-1.58,9.22,.76l103.53,48.72c4.98,2.34,9.49,4.34,10.03,4.45s5.87-2.34,10.76-4.86l13.05-8.21c4.68-2.9,12.08-8,16.44-11.34L325.45,8.88Zm92.76,222.38c-.42-.71-2.61-3.57-4.86-6.36s-4.14-12.86-4.44-13.67-6.53-2.42-11.97-3.27l-217.84-34.3c-5.43-.86-10.25-1.54-10.71-1.51s-5.12,3.2-9.54,6.48l-.27,.2c-4.42,3.28-8.33,6.33-8.68,6.77s-.33,6.36,0,11.85l26.48,446.37c.33,5.49,1.33,12.11,2.22,14.71s7.95,3.81,8.46,3.61,3.54-5.22,6.15-10.06L413.51,242.67c2.61-4.84,5.12-10.7,4.7-11.41Zm45.81-16.3c.21,.68,4.72,2.47,10,3.99l440.77,126.93c5.28,1.53,10.03,2.81,10.55,2.84s4.64-1.86,8.22-3.56,14.52-2.71,15.15-2.85,4.05-5.15,6.85-9.88l82.44-139.51c2.8-4.74,5.64-11.32,6.32-14.64s-12.94-5.02-18.42-4.63l-550.71,39.24c-5.49,.39-11.39,1.39-11.18,2.07Zm654.19,83.35c2.17,5.05,5.65,13.35,7.73,18.44l11.62,28.36c2.09,5.09,5.49,13.42,7.56,18.52l42.43,104.29c2.07,5.09,4.16,9.71,4.63,10.26s4.65,.85,7.68,.74,5.9-.13,6.38-.05,3.72,3.1,6.46,5.92,5.45,5.4,6.03,5.72,6.46-1.24,11.67-3l223.9-75.69c5.21-1.76,9.9-3.5,10.42-3.87s1.38-3.31,1.67-5.16,.44-3.94,.32-4.65-5.28-4.12-10.09-6.79l-361.64-201.39c-4.8-2.68-11.95-4.43-15.89-3.9s-2.02,13.78,.06,18.88l39.06,93.37Zm-137.12,74.9c4.99,2.31,13.03,6.34,17.88,8.95l51.45,26.23c4.96,2.38,13.01,6.39,17.91,8.91l99.34,51.06c4.89,2.51,10.35,4.85,12.13,5.2s-.65-8.75-2.75-13.84l-105.65-255.59c-2.1-5.08-4.06-9.59-4.36-10.01s-4.63-2.05-8.55-3.28-7.77-2.2-8.57-2.15-4.47,5.2-7.27,9.93l-81.28,137.39c-2.8,4.73-5.21,8.99-5.36,9.47s1.25,5.3,2.74,9.66,2.91,8.26,3.16,8.67,5.3,2.96,10.29,5.28l8.89,4.12Zm-58.93-17.5c-.54-.34-5.3-1.88-10.59-3.4L460.93,222.27c-5.29-1.52-10.2-2.74-10.92-2.7s-3.94,3.72-6.2,6.88-4.27,6.13-4.47,6.6,.95,6.11,2.28,11.44l48.3,193.46c1.33,5.34,3.38,10.91,4.55,12.38l1.67-.43,.08-.02c.08-.03,3.2-.4,6.93-.83s13.27,3.29,13.7,3.46,5.99-.84,11.36-2.03l380.92-84.51c5.37-1.19,10.92-2.83,12.33-3.63s1.23-6.28,.69-6.63Zm-495.89-120.44c-1.32,1.22-4.52,6.18-7.13,11.03l-215.03,400.71c-2.6,4.85-5.15,10.35-5.67,12.22s8.28-2.59,12.89-5.59l264.68-172.32c4.61-3,8.72-5.85,9.13-6.33s1.13-5.01,1.7-8.65-1.66-17.54-2.99-22.88l-48.9-196.12c-1.34-5.34-2.52-9.93-2.63-10.21s-4.74-3.09-6.05-1.87Zm1499.18,397.99c.7-1.83,1.28-7.83,1.28-13.33V299.95c0-5.5-.25-10.64-.56-11.41s-4.08-2.5-6.55-3.54-7.29-7.46-7.91-8.05-6.92,.6-12.21,2.13l-386.13,111.28c-5.28,1.52-10.16,3.2-10.83,3.72s-.61,5.21-.15,8.53,1,6.45,1.2,6.95,5.11,3.56,9.89,6.24,21.44,11.69,26.29,14.3l370.46,199.03c4.84,2.6,14.51,5.99,15.21,4.16Zm-810.52,280.29c1.57,1.95,3.62,3.62,4.56,3.7s2.61-1.47,2.68-1.64,1.03-5.07,2.05-10.48l70.66-376.17c1.02-5.41,1.73-10.48,1.58-11.28s-5.05-4.96-9.21-8.56l-4.82-11.88c.46-5.48,.84-10.7,.84-11.6s-5.49-4.39-10.4-6.88l-203.23-102.76c-4.91-2.48-9.49-4.61-10.17-4.72s-3.55,1.78-5.18,3.21-3.25,3.01-3.6,3.53,.02,3.7,.53,5.7,4.26,14.59,5.87,19.85l150.28,491.08c1.61,5.26,6,16.93,7.57,18.88Zm-524.32-264.66c.37,.19,2.31,.85,4.31,1.46s11.15-5.47,15.29-9.09l295.04-257.39c4.14-3.62,8.48-7.87,9.64-9.45s-8.68-.49-14.05,.71l-365.93,81.29c-5.37,1.19-10.36,2.6-11.1,3.12s-1,4.89-.92,7.71-1.9,10.49-1.98,10.89,1.52,5.67,3.26,10.89l49.67,148.47c1.75,5.22,3.56,9.98,4.03,10.58s4.3,.91,6.79,.78,5.58-.13,5.95,.06Zm14.58,24.46c1.12,1.13,6.04,4.12,10.93,6.65l469.45,242.69c4.89,2.53,9.46,4.69,10.16,4.81s4-2.22,6.14-4.13,4.17-3.95,4.51-4.52-1.04-6.51-2.65-11.77l-157.8-515.44c-1.61-5.26-3.16-9.95-3.44-10.43s-4.37-2.2-7.93-3.43-6.98-2.26-7.6-2.3-5.36,3.62-9.51,7.24l-303.03,264.57c-4.14,3.62-8.59,8.12-9.87,10.01s.28,8.35,.42,8.91-.91,6.02,.22,7.15Zm921.32,129.14c4,3.78,10.52,9.98,14.49,13.79l170.73,161.81c3.99,3.79,8.42,7.22,9.85,7.63s-.36-6.29-2.49-11.35l-226.14-538.42c-2.12-5.07-4.22-9.66-4.67-10.19s-5-1.57-8.59-2.3-11.49-7.12-12.09-7.5-6.58,1.15-11.8,2.89l-223.95,75.04c-5.21,1.76-10.91,4.27-12.67,5.59s-2.9,7.77-2.79,8.2,4.03,4.44,8.02,8.24l302.09,286.6Zm203.47,180.34c.78,.68,2.19,1.36,3.12,1.51s2.65-1.2,2.67-1.24,2.28-4.05,4.97-8.84l135.77-240.39c2.71-4.78,7.14-12.62,9.82-17.42l24.1-43.69c2.62-4.83,4.88-9.23,5.02-9.76s-.99-4.76-1.97-8.28,.32-13.68,.27-14.5-5.38-4.35-10.23-6.96l-392.85-211.02c-4.85-2.6-9.15-4.84-9.57-4.97s-2.82,.9-4.41,2.05,.85,11.02,2.98,16.09l224.32,535.28c2.12,5.08,5.2,11.45,5.99,12.14ZM502.75,487.61c-.58-.55-3.5-2.04-6.49-3.31s-5.89-2.38-6.45-2.45-5.66,2.88-10.27,5.88l-273.7,178.04c-4.61,3-8.71,5.8-9.1,6.22s-.72,4.37-.72,7.49-.1,6.08-.21,6.57-1.82,2.63-2.89,4.01,2.39,8.54,5.6,13l198.11,274.9c3.22,4.46,6.17,8.38,6.56,8.72s3.35-.83,5.41-2.67,5.66-13.7,6.67-19.11l86.43-465.03c1-5.41,1.63-11.72,1.04-12.27Zm9.77-1.98c-.96,2.22-2.56,8.47-3.57,13.88l-85.22,459.56c-1,5.41-1.78,10.08-1.72,10.39l.22,.04s.01,0,.02,0c1,.09,141.43-281.83,141.43-281.83,2.45-4.92,4.56-9.27,4.67-9.66s-.18-4.66-.45-8.63,3.19-14.11,3.32-14.56-1.45-5.91-3.18-11.13l-48.1-144.92c-1.73-5.22-6.47-15.35-7.43-13.13Zm692.26,33.52c-.78,1.48-2.24,7.11-3.25,12.52l-70.5,375.73c-1.01,5.41-1.84,10.18-1.84,10.61s1.64,3.39,3.12,5.74,3.18,4.67,3.77,5.14,6.76-.77,12.05-2.3l249.55-72.05c5.28-1.53,10.09-3.1,10.68-3.49s1.86-4.38,2.68-7.29,6.3-9.61,6.71-10.39-2.67-6.48-5.74-11.04l-197.39-293.36c-3.07-4.56-9.05-11.31-9.82-9.83Zm121,102.98s-3.33-3.16-7.31-6.95l-80.03-76.17c-3.98-3.79-10.02-9.02-13.41-11.62s4.86,11.64,7.93,16.21l186.15,276.65c3.07,4.56,5.9,8.59,6.28,8.95s5.79,2.29,10.85,4.19,11.96,14.9,11.98,15.28-.47,2.3-.77,3.48,.46,4.61,.68,4.98,5.1,3.08,9.99,5.59l243.39,125.07c4.89,2.51,9.08,4.64,9.31,4.73s1.74,.05,2.81-.11-3.11-5.08-7.1-8.87l-372.7-353.92c-3.99-3.79-7.34-6.97-7.46-7.07s-.56-.39-.59-.42Zm515.97,660.14c.65,.47,2.41,.96,3.91,1.09l.67-1.21,.15-.28c.08-.34,.71-5.08,1.4-10.54l75.59-589.79c.7-5.45,.65-11.01-.11-12.35s-5.69,5.17-8.39,9.96l-167.5,296.47c-2.71,4.79-5.04,9.26-5.18,9.95s2.22,6.3,4.27,11.25-2.24,19.13-2.4,19.62,1.58,6.01,3.48,11.18l88.93,242.89c1.89,5.17,4.53,11.28,5.18,11.75ZM579.62,685.6c-.28-.18-.86-.62-1.28-.98s-2.26-1.08-4.08-1.61l-1.11,1.32-.16,.19c-.14,.24-2.26,4.47-4.71,9.39l-140.87,282.53c-2.45,4.92-4.51,9.66-4.58,10.54s2.49,3.57,4.02,4.95,4.53,6.75,5.07,7.38,5.42,.48,9.05-.05,17.68-2.18,23.15-2.78l597.52-65.22c5.47-.6,11.57-1.69,13.56-2.44s-6.52-6.58-11.41-9.11l-452.62-234.06c-4.89-2.53-9.41-4.69-10.06-4.81s-4.7,1.75-7.83,3.28-13.36,1.66-13.65,1.48Zm-389.01,420.79c.43,.43,3.67,2.39,7.19,4.35s6.87,3.69,7.43,3.83,5.93-2.39,10.77-5l169.66-91.46c4.84-2.61,9.36-5.47,10.05-6.36s-1.25-4.6-1.53-5.16,.7-4.44,1.69-7.28,1.86-5.61,1.91-6.17-3.14-5.51-6.35-9.97l-198.05-274.68c-3.22-4.46-7.14-9.07-8.72-10.23s-3.49,7.43-3.6,12.93l.72,35.56c.19,5.5,.48,14.49,.63,19.99l3.67,147.35c.08,5.5,.22,14.5,.31,20l3.19,160.43c.12,5.5,.59,11.45,1.03,11.87Zm948.22-167.05c-2.95,2.4-6.28,5.65-7.39,7.23s-4.56,5.41-4.89,5.95,.87,6.47,2.31,11.78l108.88,402.46c1.44,5.31,3.05,10.25,3.59,10.98s3.98,.9,4.61,.64,2.99-5.92,4.74-11.13l163.08-486.62c1.75-5.21,2.49-12.62,1.65-16.46s-14.72-3.14-20-1.61l-231.12,66.65c-5.29,1.52-22.49,7.72-25.44,10.11Zm429.02-11.18c-4.9-2.5-12.87-6.68-17.71-9.3l-61.13-31.22c-4.95-2.39-12.95-6.52-17.76-9.18l-17.5-9.66c-4.81-2.66-9.26-4.95-9.87-5.09s-4.14,1.31-6.67,2.48-10.35,2.47-11.03,2.72-3.07,5.95-4.82,11.16l-161.96,483.62c-1.75,5.22-3.31,11.22-3.47,13.33s8.71-3.19,13.04-6.58l439.86-343.91c4.33-3.39,8.59-7.52,9.47-9.19l-1.07-1.35-.1-.13c-.13-.13-1.54-1.98-3.13-4.12s-3.6-9.58-3.81-10.12-5.33-3.52-10.23-6.02l-132.13-67.44Zm-1135.06,82.78c.85,1.66,5.61,4.96,10.57,7.33l764.67,365.65c4.96,2.37,9.56,4.4,10.22,4.5s4.68-2.73,7.79-5.32,5.96-5.16,6.33-5.72-.82-6.54-2.26-11.85l-107.91-399.19c-1.44-5.31-2.96-10.17-3.39-10.79s-5.01-3.63-8.49-6.62-14.39-12.93-14.8-13.18-6.1,.08-11.57,.66l-63.41,6.6c-5.46,.67-14.4,1.7-19.87,2.3l-555.09,61.02c-5.47,.6-13.65,2.95-12.8,4.61Zm-221.3,129.32c3.79,2.64,10.2,7.85,14.26,11.56l211.31,193.16c4.06,3.71,10.56,7.77,14.43,9.02s5.3-10.3,4.55-15.75l-41.31-301.03c-.74-5.45-1.54-10.35-1.76-10.89s-3.86-2.59-6.89-4.02-5.95-2.68-6.48-2.78-5.81,2.42-10.65,5.03l-169.85,91.67c-4.84,2.61-9.08,4.98-9.42,5.25s-2,16.12,1.79,18.76Zm1369.22,417.44c2.02-1.02,4.03-2.17,4.47-2.55s4.67-4.62,8.55-8.52l224.42-225.15c3.89-3.89,7.33-7.58,7.65-8.19s-.33-6.46-.86-11.56,8.07-16.59,8.47-17.22-1.28-6.65-3.18-11.81l-88.72-241.65c-1.9-5.16-3.89-9.9-4.44-10.52s-3.47-.4-4.69,.17-4.19,7.98-5.69,13.27l-140.19,494.8c-1.5,5.29-3.35,11.72-4.1,14.29s-3.7,15.66-1.68,14.64Zm-1022.77-404.52c3.82,3.95,10.08,10.42,13.9,14.38l268.16,277.03c3.83,3.95,7.45,7.45,8.06,7.77s6.77-.15,12.25-.52l10.51,3.53c4.02,3.76,7.76,7.24,8.31,7.74s6.75-.22,12.15-1.28l310.41-61.18c5.4-1.06,10.97-2.51,12.38-3.21s-6.01-5.38-10.97-7.76l-753.52-360.46c-4.96-2.37-11.12-4.92-13.69-5.66s4.93,8.55,8.76,12.5l113.31,117.12Zm236.64,254.6c-3.81-3.97-10.05-10.45-13.88-14.4l-336.19-346.77c-3.83-3.95-8.8-9.04-11.04-11.33s-8.2-7.62-9.81-8.49-2.13,6.19-1.85,8.72,1.96,14.97,2.71,20.42l37.53,273.59c.74,5.45,1.39,12.51,1.45,15.69s8.34,12.85,11.32,15.66,4.03,14.73,4.23,15.61,6.38,3,11.74,4.25l337.44,78.62c5.36,1.25,11.47,2.23,13.59,2.19s-3.97-8.34-7.75-12.34l-39.47-41.42Zm474.34-28.17c-4.33,3.39-5.31,9.86-2.18,14.37l8.97,16.32c5.17,1.88,13.31,5.64,18.09,8.36l247.3,140.95c4.78,2.73,9.33,5.06,10.12,5.19s4.28-2.08,6.57-3.61,10.19-1.96,11.05-2.15,3.23-6.23,4.73-11.52l142.68-502.92c1.5-5.29,2.76-11.25,2.79-13.24s-8.51,3.08-12.84,6.47l-437.27,341.79Zm-826.15-18.97c-.37-.67-3.99-4.26-8.05-7.97l-220.96-201.73c-4.06-3.71-7.69-6.9-8.07-7.08l-.19,.18-.02,.02s2.09,4.02,4.69,8.87l202.79,378.43c2.62,4.84,5.93,9.48,7.37,10.32s3.82-5.91,4.7-11.34l21.35-131.8c.88-5.43,1.57-10.32,1.53-10.87s-2.68-4.99-4.98-8.99,.21-17.37-.15-18.04Zm1140.17,207.35c.04,.68,.3,5.62,.56,10.99s-10.35,17.69-10.8,18.33,1.32,6.71,3.31,11.84l49.74,129.22c1.97,5.14,4.23,10.66,5.03,12.28s4.19,4.82,5.08,5.07,2.83-.97,2.92-1.1,2.14-4.58,4.41-9.59l187.41-413.64c2.27-5.01,4.23-10.06,4.35-11.22s-3.5-1.17-4.03-.94-5.15,4.6-9.04,8.49l-231.08,231.08c-3.89,3.89-7.91,8.5-7.87,9.18Zm-748.41-98.66c-1.98-.91-7.98-2.68-13.33-3.93l-327.13-76.33c-5.36-1.25-13.93-1.8-19.05-1.24s-19.1,4.55-19.62,4.91-1.83,6.24-2.7,11.67l-19.71,122.55c-.87,5.43-1.44,10.54-1.26,11.36s4.33,3.39,7.43,5.13,9,9.86,9.57,10.43,6.86-.23,12.23-1.39l360.16-77.84c5.38-1.16,15.38-4.42,13.4-5.33Zm69.32-.14c1.92,.95,4.07,1.86,4.77,2.02s6.89,1.17,12.33,2l607.38,93.3c5.44,.84,9.98,1.5,10.11,1.47s.26-.31,.28-.41,0-.36-.05-.59-4.42-2.91-9.2-5.64l-237.93-135.79c-4.78-2.72-12.48-7-17.12-9.51-4.64-2.51-17.89-8.68-18.6-8.76s-6.25,2.8-11.18,5.26l-15.14-.77c-4.68-2.89-8.89-5.53-9.36-5.86s-4.32-.17-7.28,.25-17.31,3.11-22.7,4.17l-272.84,53.78c-5.4,1.06-15.38,4.13-13.46,5.08Zm-1.36,10.96c3.63,1.93,10.78,5.18,15.89,7.21l683.6,271.86c5.11,2.03,9.8,3.75,10.41,3.82s3.87-2.07,6.14-3.89,4.47-3.81,4.87-4.45-1.4-6.63-3.38-11.76l-52.31-134.86c-1.99-5.13-3.88-9.69-4.2-10.15s-4.74-2.92-8.61-5.17-7.96-14.03-8.28-14.76-6.48-2.23-11.92-3.07l-614.4-94.54c-5.44-.84-21.42-2.19-17.79-.26Zm-454.95,87.92c1.35,2.56,5.77,7.71,9.81,11.44l185.06,171c4.04,3.73,7.86,7.03,8.48,7.32s5.03-.65,8.36-1.48,12.94,.62,13.74,.61,4.61-5.06,7.55-9.71l159.42-252.69c2.93-4.65,5.57-9.61,5.86-11.01s-2.82-4.7-3.18-4.86-3.67,.13-6.5,.56-19.45,3.84-24.83,5l-348.14,75.25c-5.38,1.16-16.99,6.02-15.64,8.58Zm559.53,204.14c5.5,0,14.5,.07,20,.14l570.89,3.39c5.5,.04,10.56-.12,11.25-.36s1.58-2.46,1.46-3.38-7.14-4.4-12.25-6.44l-709.82-282.08c-5.11-2.03-9.9-3.73-10.63-3.76s-4.96,2.96-8.31,5.38-15.04,2.81-15.74,2.9-4.36,5.05-7.29,9.71l-163.02,258.65c-2.93,4.65-5.58,9.52-5.88,10.82s7.61,2.64,13.1,2.88l64.61,1.68c5.5,.18,14.49,.32,19.99,.32l231.65,.14Zm-324.58,7.6c.48,.33,5.17,1.88,10.44,3.46l617.1,184.87c5.27,1.58,10.19,2.84,10.93,2.81s5.72-3.89,10.12-7.19l13.28-2.15c5.26,1.59,10.14,3.06,10.83,3.26s6-3,10.49-6.18l231.24-163.83c4.49-3.18,9.26-7.08,10.6-8.67s-8.81-2.76-14.31-2.73l-157.49-.69c-5.5-.08-14.5-.18-20-.22l-273.15-1.24c-5.5,.04-14.5-.13-19.99-.37l-31.32-.68c-5.49-.25-14.49-.46-19.99-.48l-240.55-.81c-5.5-.02-14.5-.13-20-.26l-116.68-.94c-5.5-.07-10.23-.07-10.5,0s-1.52,1.72-1.05,2.04Zm1206.55,119.12c-1.33-1.13-6.54-3.86-11.58-6.07l-225.87-98.87c-5.04-2.21-9.6-4.08-10.14-4.17s-4.75,1.18-8.3,2.19-13.29-2.43-13.97-2.62-5.97,3.01-10.45,6.19l-240.6,170.34c-4.49,3.18-8.32,5.97-8.52,6.22s-.18,1.27-.03,1.59,5.62-.14,11.07-.88l492.73-67c5.45-.74,10.47-1.39,11.15-1.45s6.69-.62,7.87-.78,7.96-3.55,6.63-4.68Z"/>
        <path class="cls-11" d="M339.79,4.1c-.4-.56,3.77-1.03,9.27-1.04l272.4-.35c5.5,0,6.81,3.17,2.92,7.05l-179.63,179.29c-3.89,3.89-7.54,7.31-8.11,7.62s-3.38-.22-4.88-.73-3.11-.96-3.56-1.02-4.87,1.94-8.9,3.97-7.6,3.77-7.95,3.88-5.72-.61-11.16-1.47l-220.59-34.76c-5.43-.86-10.26-1.71-10.73-1.9s-3.34-4.46-5.8-8.54-4.58-8.11-4.72-8.97,4.56-5.29,8.91-8.65L331.07,12.38c4.36-3.35,9.12-7.72,8.72-8.28Z"/>
        <path class="cls-11" d="M631.81,10.94c3.87-3.91,11.53-7.13,17.03-7.15l204.83-.68c5.5-.02,9.73,.09,9.39,.25s-.93,.58-1.32,.94,2.06,1.87,3.59,2.63,9.48,6.76,13.78,10.19l163.8,130.1c4.31,3.41,8.16,6.68,8.55,7.26s-.78,4.23-2.16,6.61-13.16,4.96-18.64,5.31l-100.98,6.92c-5.49,.39-14.46,1.04-19.95,1.43l-353.98,25.24c-5.49,.39-14.46,1.04-19.95,1.45l-56.39,4.66c-5.48,.49-14.44,1.3-19.92,1.8l-4.25-6.51c-5.12-2.02-6.12-6.85-2.22-10.74L631.81,10.94Z"/>
        <path class="cls-11" d="M878.77,8.98c-4.32-3.4-3.36-6.18,2.14-6.18l466.91,.27c5.5,0,13.41,.6,17.57,1.33s3.58,3.4-1.3,5.94l-267.49,139.51c-4.87,2.55-13.32,5.26-18.76,6.03l-12.6-1.16c-4.61-3-11.92-8.24-16.23-11.64L878.77,8.98Z"/>
        <path class="cls-10" d="M1365.39,4.4c-4.16-.73-3.07-1.33,2.43-1.33h1.08c5.5,0,8.67,.6,7.03,1.33s-6.37,.73-10.54,0Z"/>
        <path class="cls-10" d="M1389.29,3.65c-.56-.31,1.43-.57,4.44-.57s4.31,.34,2.9,.75-6.77,.14-7.34-.18Z"/>
        <path class="cls-11" d="M1396.62,3.83c1.41-.41,7.07-.75,12.57-.75h167.36c5.5,0,8.85,4.35,7.45,9.67l-95.11,360.96c-1.4,5.32-2.66,9.94-2.8,10.26s-3.99,2.37-7.96,4.05-19.66-3.9-24.47-6.58l-357.04-198.29c-4.81-2.67-9.77-5.56-11.02-6.43s-4.01-5.6-4.05-7.78,8.13-8.26,13.01-10.79L1382.29,8.92c4.88-2.53,12.93-4.69,14.34-5.1Z"/>
        <path class="cls-11" d="M1590.75,12.87c1.4-5.32,7.04-9.68,12.54-9.68l106.75-.11c5.5,0,12.78,3.53,16.18,7.85l183.71,233.68c3.4,4.32,6.38,8.44,6.62,9.15s-2.4,5.34-4.91,8.9-4.78,6.71-5.06,6.99-5.51,1.96-10.79,3.48l-389.03,112.24c-5.28,1.52-10.69,2.72-12.02,2.65s-.35-8.01,1.05-13.33L1590.75,12.87Z"/>
        <path class="cls-11" d="M1733.19,10.38c-3.42-4.31-1.72-7.82,3.78-7.81l255.48,.49c5.5,.01,9.99,4.52,9.99,10.02l-.23,184.34c0,5.5-3.74,12.52-8.3,15.59l-39.69,27.51c-4.49,3.18-12.55,6.78-17.91,8.01l-14.35-2.47c-4.26-3.47-10.53-9.86-13.92-14.19L1733.19,10.38Z"/>
        <path class="cls-14" d="M3.97,113.59c0-5.5,4.07-8.06,9.03-5.68l102.12,48.91c4.96,2.38,9.28,4.51,9.6,4.74s2.82,5.05,5.18,9.95,4.38,9.33,4.49,9.85-2.24,5.85-4.69,10.78L8.06,436.38c-2.45,4.92-4.45,4.45-4.45-1.05l.35-321.74Z"/>
        <path class="cls-14" d="M413.35,224.9c2.25,2.79,4.44,5.65,4.86,6.36s-2.09,6.57-4.7,11.41l-220.32,409.41c-2.61,4.84-5.04,9.14-5.41,9.55s-3.65,.21-6.07-.62-5.01-11.71-5.34-17.2l-26.48-446.37c-.32-5.49-.5-10.45-.38-11.01s4.66-4.34,9.07-7.61l.27-.2c4.42-3.28,8.37-6.11,8.79-6.3s6.03,.48,11.46,1.33l217.84,34.3c5.43,.86,10.48,1.92,11.22,2.36s2.94,11.8,5.19,14.58Z"/>
        <path class="cls-11" d="M474.02,218.95c-5.29-1.52-9.79-3.31-10-3.99s5.69-1.68,11.18-2.07l550.71-39.24c5.49-.39,12.69,0,16.02,.84s-1.12,13.69-3.92,18.42l-82.44,139.51c-2.8,4.74-5.48,8.97-5.96,9.41s-5.26,1.04-9.2,1.42-13.74,5.14-14.22,5.33-6.1-1.18-11.39-2.71l-440.77-126.93Z"/>
        <path class="cls-11" d="M1145.12,363.63c-2.07-5.09-5.01-13.59-6.52-18.88l-11.66-28.48c-2.63-4.83-6.56-12.91-8.73-17.97l-39.06-93.37c-2.08-5.09-3.33-12.75-2.79-17.02s13.81-.64,18.62,2.04l361.64,201.39c4.81,2.68,9.13,5.3,9.62,5.83s.44,3.77,.15,5.61-.75,3.82-1.03,4.4-5.86,2.87-11.07,4.63l-223.9,75.69c-5.21,1.76-10.01,3.22-10.67,3.24s-4.29-3.13-7.03-5.96-5.31-5.36-5.71-5.62-4.09-.36-7.12-.25-6.08,.04-6.77-.15-3.47-5.75-5.54-10.84l-42.43-104.29Z"/>
        <path class="cls-14" d="M13.65,712.32c-5.32,1.39-9.68-1.98-9.68-7.48v-240.74c0-5.5,.13-9.79,.28-9.53s.56,.71,.91,1,3.2-4.62,5.65-9.54l122.4-245.09c2.46-4.92,5.45-10.13,6.65-11.57s2.83,8.09,3.15,13.58l26.43,447.55c.32,5.49,.45,10.52,.28,11.17s-2.99,2.94-4.93,4.41-5.55,7.31-5.86,7.75-5.87,2.18-11.2,3.57L13.65,712.32Z"/>
        <path class="cls-11" d="M1068.31,417.3c-4.89-2.51-12.78-6.84-17.53-9.61l-51.47-26.25c-5.03-2.22-13.23-5.93-18.22-8.24l-8.89-4.12c-4.99-2.31-9.38-4.43-9.76-4.7s-2.19-4.88-3.68-9.25-2.76-8.34-2.82-8.84,2.64-5.55,5.44-10.29l81.28-137.39c2.8-4.73,5.59-9.02,6.21-9.52s5.71,.51,9.63,1.74,7.48,2.44,7.93,2.7,2.88,5.5,4.98,10.58l105.65,255.59c2.1,5.08,3.98,10.71,4.18,12.52s-8.68-1.36-13.57-3.88l-99.34-51.06Z"/>
        <path class="cls-10" d="M2000.89,215.83c.86-.99,1.56,1.89,1.56,6.4s.19,5.58,.42,2.39-2.84-7.8-1.98-8.79Z"/>
        <path class="cls-11" d="M1991.12,223.35c4.51-3.14,8.59-3.72,9.06-1.28s2.26,12.87,2.26,18.37V762.21c0,5.5-.56,11.19-1.23,12.64s-3.34-1.34-5.91-6.2l-48.11-90.96c-2.57-4.86-4.78-9.39-4.91-10.06s2.08-6.41,3.96-11.58l-3.29-16.69c-3.73-4.05-7.15-7.72-7.6-8.17s-.83-6.47-.83-11.97V299.64c0-5.5,.16-10.52,.34-11.15s4.63-4.86,8.53-8.74l3.11-10.82c-1.03-5.4-1.94-10.53-2.04-11.4s4.83-5.06,9.35-8.2l37.3-25.98Z"/>
        <path class="cls-14" d="M450.01,219.56c.72-.03,5.63,1.19,10.92,2.7l450.64,130.05c5.28,1.53,10.05,3.06,10.59,3.4s1.02,3.01,.8,4.53-8.45,4.54-13.82,5.73l-380.92,84.51c-5.37,1.19-10.14,2.17-10.6,2.17s-4.39-1.51-7.89-2.81-14.88-.16-16.76-.33l-.55-1.63-.03-.08c-.02-.09-1.13-4.52-2.47-9.86l-48.3-193.46c-1.33-5.34-2.43-10.12-2.44-10.62s2.37-4.26,4.62-7.42,5.48-6.84,6.2-6.88Z"/>
        <path class="cls-14" d="M419.14,246.3c2.6-4.85,5.81-9.81,7.13-11.03s5.62,1.16,5.79,1.4,1.56,5.34,2.89,10.67l48.9,196.12c1.32,5.34,2.18,12.8,1.89,16.59s-.05,13.42-.18,14.05-4.95,4.22-9.56,7.23l-264.68,172.32c-4.61,3-9.87,6.01-11.7,6.68s1.89-8.47,4.49-13.32L419.14,246.3Z"/>
        <path class="cls-11" d="M1926.72,619.94c0,5.5-.58,11.5-1.28,13.33s-10.37-1.55-15.21-4.16l-370.46-199.03c-4.85-2.6-12.75-6.87-17.56-9.49s-17.73-9.97-18.13-10.33-1.23-4.34-1.69-7.66-.68-6.72-.48-7.55,6.18-3.18,11.47-4.7l386.13-111.28c5.28-1.52,10.3-2.7,11.14-2.62s3.55,3.38,5.22,5.58,8.83,5.2,9.55,5.62,1.31,6.79,1.31,12.29v319.99Z"/>
        <path class="cls-10" d="M1122.15,307.5c9.85,14.16,16.25,29.78,19.2,46.87l-19.2-46.87Z"/>
        <path class="cls-14" d="M1118.41,917.38c-.35-.16-1.91-1.88-3.49-3.83s-5.96-13.62-7.57-18.88l-150.28-491.08c-1.61-5.26-3.67-12.1-4.58-15.21s-2.18-8.8-2.13-9.42,2.28-3.03,3.91-4.46,3.49-2.81,4.13-3.09,6.31,2.12,11.22,4.6l203.23,102.76c4.91,2.48,9.4,5.07,9.98,5.76s.03,7.24-.43,12.72l4.82,11.88c4.16,3.6,8.05,6.99,8.65,7.55s-.01,6.88-1.03,12.29l-70.66,376.17c-1.02,5.41-2.71,11.08-3.77,12.62l-1.7-.31-.34-.06Z"/>
        <path class="cls-14" d="M589.93,648.68c-.41-.05-2.78,.02-5.27,.15s-5.13,.07-5.87-.15-3.21-5.99-4.96-11.21l-49.67-148.47c-1.75-5.22-3.22-9.81-3.28-10.2s.74-3.68,1.44-6.47,.59-10.95,.81-11.82,6.4-2.91,11.77-4.11l365.93-81.29c5.37-1.19,11.36-2.16,13.32-2.15s-4.77,7.28-8.91,10.9l-295.04,257.39c-4.14,3.62-9.32,7.49-11.5,8.62s-8.38-1.15-8.79-1.2Z"/>
        <path class="cls-14" d="M616.12,680c-4.89-2.53-9.8-5.52-10.93-6.65s-.32-5.67-.2-6.23-.67-3.71-1.14-5.89,6.43-10.33,10.58-13.95l303.03-264.57c4.14-3.62,7.99-6.79,8.55-7.06s4.99,.89,8.56,2.12,6.86,2.48,7.32,2.78,2.45,5.81,4.06,11.07l157.8,515.44c1.61,5.26,2.93,10.11,2.92,10.78s-2.65,3.6-4.79,5.52-4.42,3.71-5.08,4-6.33-2.15-11.22-4.67l-469.45-242.69Z"/>
        <path class="cls-10" d="M990.16,377.41c24.4,9.18,47.48,20.95,69.26,35.32-23.63-10.7-46.71-22.47-69.26-35.32Z"/>
        <path class="cls-11" d="M1541,816.28c-3.97-3.8-10.49-10.01-14.49-13.79l-302.09-286.6c-3.98-3.79-7.45-7.19-7.71-7.55s-.09-3.33,.42-5.62,9.52-7.09,14.73-8.85l223.95-75.04c5.22-1.74,10.07-3.17,10.78-3.18s4.43,2.83,7.27,5.08,12.9,4.23,13.56,4.44,3.41,5.71,5.53,10.78l226.14,538.42c2.14,5.07,3.36,9.88,2.71,10.7s-6.09-3.18-10.07-6.97l-170.73-161.81Z"/>
        <path class="cls-11" d="M1731.53,984.15c-.07-.04-.76-.64-1.55-1.32s-3.87-7.06-5.99-12.14l-224.32-535.28c-2.13-5.07-4.04-10.97-4.24-13.11s4.5-5.1,4.94-5.12,5.46,2.46,10.3,5.06l392.85,211.02c4.85,2.6,9.25,5.25,9.8,5.88s.14,5.51-.32,9.1,2.36,13.33,2.47,13.86-2.41,5.82-5.04,10.65l-24.1,43.69c-2.69,4.8-7.11,12.64-9.82,17.42l-135.77,240.39c-2.7,4.79-6.13,9.64-7.64,10.76l-1.51-.84-.06-.04Z"/>
        <path class="cls-14" d="M496.26,484.3c2.99,1.27,5.91,2.76,6.49,3.31s-.04,6.86-1.04,12.27l-86.43,465.03c-1.01,5.41-2.03,12.76-2.27,16.34s-8.56,5.99-9.06,5.84-4.1-4.67-7.32-9.13l-198.11-274.9c-3.21-4.46-6.06-9.21-6.33-10.54s2.94-5.31,3.25-5.72,.58-4.22,.58-7.33,.12-6.12,.27-6.68,4.94-4.03,9.55-7.03l273.7-178.04c4.61-3,8.82-5.6,9.36-5.79s4.37,1.1,7.36,2.37Z"/>
        <path class="cls-14" d="M421.9,968.92s.82-4.44,1.82-9.85l85.22-459.56c1-5.41,2.61-11.65,3.57-13.88s5.7,7.91,7.43,13.13l48.1,144.92c1.73,5.22,3.19,9.88,3.25,10.35s-1.31,4.65-2.53,8.36-.36,14.53-.33,14.93-2.3,5.42-4.75,10.34l-136.94,272.89c-2.47,4.92-4.66,8.81-4.87,8.66l.03-.29h0Z"/>
        <path class="cls-14" d="M1201.53,531.66c1.01-5.41,2.48-11.04,3.25-12.52s6.75,5.27,9.82,9.83l197.39,293.36c3.07,4.56,5.73,9,5.9,9.86s-2.48,4.49-4.39,6.81-4.22,10.58-4.49,11.23-6.07,2.79-11.35,4.31l-249.55,72.05c-5.28,1.53-10.24,2.74-11,2.69s-3.34-3.19-4.82-5.54-2.82-4.61-2.97-5.02,.68-5.93,1.7-11.33l70.5-375.73Z"/>
        <path class="cls-14" d="M1325.86,622.18s.18,.12,.3,.2,3.69,3.44,7.68,7.23l372.7,353.92c3.99,3.79,7.5,7.43,7.8,8.11s-2.84,1.03-3.08,.99-4.84-2.33-9.73-4.85l-243.39-125.07c-4.89-2.51-9.17-4.79-9.51-5.05s-1.04-2.18-1.24-3.36,.69-4.61,.79-4.97-2.19-5.21-4.87-9.93-16.66-9.61-17.16-9.77-3.95-4.82-7.02-9.38l-186.15-276.65c-3.07-4.56-7.21-11.38-9.2-15.15s10.69,6.77,14.68,10.56l80.03,76.17c3.98,3.79,7.34,6.98,7.38,7Z"/>
        <path class="cls-11" d="M1843.52,1283.38c-.32-.14-1.11-.64-1.77-1.11s-3.29-6.58-5.18-11.75l-88.93-242.89c-1.89-5.16-3.49-9.81-3.56-10.33s1.56-6.02,3.02-11.23-4.48-18.78-4.73-19.44,2.39-6.22,5.1-11.01l167.5-296.47c2.7-4.79,6.18-9.76,7.74-11.05s1.47,7.99,.77,13.45l-75.59,589.79c-.69,5.46-1.9,10.97-2.69,12.26l-1.37-.17-.31-.04Z"/>
        <path class="cls-11" d="M1997.45,786.97c2.63,4.83,4.79,13.28,4.79,18.78l.39,609.58c0,5.5-3.49,7.16-7.75,3.69l-123.72-100.55c-4.27-3.47-7.97-6.55-8.23-6.86s-1.49-5.55-2.53-10.79-2.09-9.92-2.32-10.4-1.75-3.26-2.34-5.69-.35-13.97,.1-19.37,2.67-23.97,3.37-29.43l71.39-554.66c.7-5.46,1.41-10.23,1.57-10.61s2.59,1.66,4.49,4.84,6.93,12.2,9.55,17.04l51.23,94.4Z"/>
        <path class="cls-14" d="M580.15,685.83c.32,.09,3.49,.01,7.04-.16s12.28-4.52,12.89-4.74,6.19,2.2,11.07,4.72l452.62,234.06c4.89,2.53,10.18,5.75,11.77,7.15s-8.45,3.8-13.92,4.4l-597.52,65.22c-5.47,.6-12.92,1.45-16.55,1.89s-13.85,1.71-14.65,1.53-2.78-3.24-3.77-5.06-5.48-6.01-5.99-6.72,1.8-6.76,4.26-11.68l140.87-282.53c2.45-4.92,5.65-9.93,7.1-11.13l1.56,.77,.23,.11c.23,.17,.75,.6,1.18,.96s1.49,1.13,1.81,1.22Z"/>
        <path class="cls-15" d="M12.74,1024.11c-4.82-2.65-8.76-9.31-8.76-14.81l.15-279.11c0-5.5,4.37-11.08,9.71-12.4l131.63-32.55c5.34-1.32,10.46-2.26,11.39-2.1s3.44,4.53,5.09,7.65,10.43,7.94,11.07,8.39,1.27,6.76,1.42,12.26l1.14,57.58c.27,5.49,.57,14.49,.67,19.99l5.51,304.82c.1,5.5-.63,12.51-1.64,15.58s-13.55-.85-18.37-3.5L12.74,1024.11Z"/>
        <path class="cls-15" d="M197.8,1110.74c-3.52-1.97-6.76-3.93-7.19-4.35s-.91-6.38-1.03-11.87l-3.19-160.43c-.1-5.5-.24-14.5-.31-20l-3.67-147.35c-.16-5.5-.44-14.49-.63-19.99l-.72-35.56c.11-5.5,1.14-10.83,2.3-11.84s6.8,4.68,10.02,9.14l198.05,274.68c3.22,4.46,6.02,8.54,6.23,9.07s-.79,4.23-1.78,7.07-1.84,5.67-1.88,6.3,1.19,3,1.8,4.22-5.28,5.66-10.12,8.27l-169.66,91.46c-4.84,2.61-9.27,4.86-9.83,5s-4.85-1.86-8.37-3.83Z"/>
        <path class="cls-10" d="M2001.21,774.84c.68-1.45,1.23,.17,1.23,3.61s-.56,4.62-1.23,2.64-.68-4.79,0-6.25Z"/>
        <path class="cls-14" d="M1131.44,946.58c1.11-1.58,4.44-4.84,7.39-7.23s20.16-8.6,25.44-10.11l231.12-66.65c5.28-1.53,12.95-2.2,17.04-1.49s3.07,14.34,1.32,19.55l-163.08,486.62c-1.75,5.22-3.51,9.93-3.91,10.49s-2.87,.98-3.96,.82-3.63-6.48-5.07-11.79l-108.88-402.46c-1.44-5.31-2.6-10.18-2.58-10.82s4.05-5.33,5.16-6.91Z"/>
        <path class="cls-14" d="M1471.25,878.47c4.81,2.66,12.65,7.09,17.4,9.85l61.15,31.23c5.03,2.23,13.15,6.11,18.04,8.61l132.13,67.44c4.9,2.5,9.26,4.87,9.7,5.26s1.49,3.91,2.22,6.55,5.31,8.94,5.68,9.8-.55,2.89-.61,2.96-3.79,2.99-8.12,6.38l-439.86,343.91c-4.33,3.39-9.47,6.86-11.42,7.72s.1-9.26,1.84-14.48l161.96-483.62c1.75-5.22,3.53-9.95,3.95-10.53s4.34-1.44,7.1-1.89,9.88-3.74,10.48-3.92,6.03,2.41,10.85,5.07l17.5,9.66Z"/>
        <path class="cls-14" d="M1480,883.31c26.96,12.24,53.27,25.68,78.94,40.31-27.73-10.6-54.04-24.03-78.94-40.31Z"/>
        <path class="cls-14" d="M1218.25,1388.41c-.66-.1-5.26-2.12-10.22-4.5L443.36,1018.27c-4.96-2.37-9.72-5.67-10.57-7.33s7.33-4.01,12.8-4.61l555.09-61.02c5.47-.6,14.41-1.63,19.87-2.3l63.41-6.6c5.47-.58,10.33-1,10.81-.93s2.88,4.71,4.55,9.59,17.92,9.52,18.63,9.79,2.83,6.17,4.26,11.48l107.91,399.19c1.44,5.31,2.59,10.2,2.57,10.87s-3.53,4.11-6.64,6.7-7.13,5.42-7.79,5.32Z"/>
        <path class="cls-15" d="M225.75,1151.83c-4.06-3.71-10.47-8.92-14.26-11.56s-2.49-17.83-2.27-18.2,5.06-3.2,9.9-5.82l169.85-91.67c4.84-2.61,9.23-4.86,9.76-5s4.33,1.33,7.36,2.75,5.88,2.9,6.33,3.27,1.57,6.18,2.31,11.63l41.31,301.03c.75,5.45-.57,11.6-2.93,13.67s-11.99-3.24-16.05-6.94l-211.31-193.16Z"/>
        <path class="cls-14" d="M1585.18,1555.16c-.43,.38-2.44,1.53-4.47,2.55s-.6-7.35,.23-9.95,4.05-13.69,5.55-18.98l140.19-494.8c1.5-5.29,3.28-10.56,3.97-11.71s4.61-2.46,5.42-2.31,3.55,5.94,5.44,11.1l88.72,241.65c1.9,5.16,3.46,10,3.48,10.75s-3.5,5.63-6.51,9.83-1.25,18.29-1.19,18.98-3.97,5.33-7.86,9.22l-224.42,225.15c-3.88,3.9-8.11,8.13-8.55,8.52Z"/>
        <path class="cls-15" d="M571.84,1167.57c-3.82-3.95-10.08-10.42-13.9-14.38l-113.31-117.12c-3.83-3.95-8.2-8.98-9.71-11.18s9.69,1.97,14.65,4.34l753.52,360.46c4.96,2.37,9.99,5.16,11.18,6.18s-7.19,3.72-12.59,4.78l-310.41,61.18c-5.4,1.06-10.42,1.85-11.15,1.75s-5.28-4.45-9.3-8.21l-10.51-3.53c-5.49,.37-10.54,.71-11.23,.75s-5.25-4.05-9.08-8l-268.16-277.03Z"/>
        <path class="cls-15" d="M780.7,1393.38c3.82,3.95,10.07,10.43,13.88,14.4l39.47,41.42c3.78,3.99,7.72,8.77,8.74,10.62s-9.22,.77-14.57-.47l-337.44-78.62c-5.36-1.25-10.34-2.71-11.07-3.25s-1.5-5.58-2.06-9.2-9.4-14.65-10.79-17.25-4.07-16.06-4.82-21.51l-37.53-273.59c-.75-5.45-1.7-12.37-2.1-15.38s-.85-11.11-.52-12.91,6.13,2.19,7.91,3.96,10.86,11.07,14.7,15.01l336.19,346.77Z"/>
        <path class="cls-13" d="M3.98,1037.1c0-5.5,3.94-7.82,8.75-5.16l147.87,81.81c4.81,2.66,9.17,5.32,9.69,5.91s.45,5.03,.28,8.18,3.23,11.24,3.41,11.75-1.48,6.1-3.3,11.29L9.51,1609.59c-1.82,5.19-3.81,8.34-4.42,7s-1.11-6.94-1.11-12.44v-567.05Z"/>
        <path class="cls-14" d="M1293.81,1418.66c-4.78-2.72-12.92-6.48-18.09-8.36l-8.97-16.32c-3.14-4.52-2.16-10.99,2.18-14.37l437.27-341.79c4.33-3.39,9.38-6.8,11.2-7.57s.35,9.05-1.15,14.35l-142.68,502.92c-1.5,5.29-3.18,10.19-3.72,10.89s-4.79,1.11-7.51,1.26-9.28,4.61-9.99,4.97-6.46-2.29-11.24-5.02l-247.3-140.95Z"/>
        <path class="cls-15" d="M434.73,1352.67c4.06,3.71,7.68,7.29,8.05,7.97s-.54,6.04-1.27,10.42,5.84,15.29,6.13,15.76-.37,6.29-1.26,11.72l-21.35,131.8c-.88,5.43-2.53,10.5-3.69,11.26s-5.76-5.41-8.38-10.25l-202.79-378.43c-2.6-4.85-4.5-8.92-4.22-9.04l.32,.23,.04,.03s3.4,3.1,7.46,6.8l220.96,201.73Z"/>
        <path class="cls-13" d="M10.28,1822.15c-3.47,2.82-6.33,.63-6.36-4.87l-.91-155.24c-.03-5.5,1.43-14.25,3.25-19.44l170.31-485.68c1.82-5.19,3.81-9.98,4.42-10.65s4.35-.48,6.36-.14,8.04-.03,8.78,.08,4.12,5.36,6.72,10.21l204.27,379.99c2.6,4.84,4.83,9.08,4.95,9.41s-.32,5.21-.87,10.07-1.14,9.24-1.31,9.74-4.92,3.83-9.56,6.78L37.17,1803.88c-4.64,2.96-23.42,15.45-26.89,18.27Z"/>
        <path class="cls-14" d="M1994.24,1426.14c4.29,3.44,7.82,10.75,7.85,16.25l.32,77.05c.02,5.5-3.73,12.45-8.34,15.45l-333.9,217.14c-4.61,3-10.07,6.03-12.13,6.75s1.04-9.3,3.31-14.31l186.88-412.76c2.27-5.01,4.35-9.43,4.64-9.81s3.89-1.87,7.03-2.95,6.18-2,6.76-2.05,5.41,3.39,9.71,6.83l127.87,102.41Z"/>
        <path class="cls-14" d="M1572.7,1597.31c.45-.64,4-4.36,7.88-8.26,0,0,3.19-4.71,2.92-10.07s-.52-10.31-.56-10.99,3.98-5.29,7.87-9.18l231.08-231.08c3.89-3.89,7.52-7.43,8.06-7.88s2.9-.94,4.06-.83-1.13,7.36-3.4,12.37l-187.41,413.64c-2.27,5.01-4.71,9.62-5.42,10.25s-2.96,.37-3.09,.3-1.27-1.25-2.27-2.41-4.69-9.67-6.66-14.8l-49.74-129.22c-1.99-5.13-3.76-11.19-3.31-11.84Z"/>
        <path class="cls-15" d="M821.2,1465.39c5.36,1.25,11.36,3.02,13.33,3.93s-8.03,4.17-13.4,5.33l-360.16,77.84c-5.38,1.16-10.42,2.02-11.21,1.9s-3.77-3.89-5.87-6.75-10.9-7.78-11.54-8.31-.23-6.94,.64-12.37l19.71-122.55c.87-5.43,1.8-10.34,2.07-10.91s5.59-3.15,10.49-5.25,23.45-.43,28.8,.81l327.13,76.33Z"/>
        <path class="cls-15" d="M908.62,1471.22c-.7-.16-2.85-1.07-4.77-2.02s8.06-4.01,13.46-5.08l272.84-53.78c5.4-1.06,12.87-2.49,16.61-3.17s11.93-1.69,12.51-1.6,5.54,3.33,10.22,6.22l15.14,.77c4.92-2.45,9.48-4.73,10.12-5.06s6.29,1.85,11.09,4.17,20.92,11.18,25.7,13.9l237.93,135.79c4.78,2.73,8.84,5.12,9.02,5.31s.24,.82,.22,.91-.08,.24-.15,.33-4.8-.56-10.24-1.4l-607.38-93.3c-5.44-.83-11.62-1.84-12.33-2Z"/>
        <path class="cls-15" d="M918.39,1487.36c-5.11-2.03-12.26-5.28-15.89-7.21s12.36-.58,17.79,.26l614.4,94.54c5.44,.84,10.45,1.84,11.15,2.23s2.61,5.58,4.13,9.76,12.36,10.14,12.85,10.41,2.89,5.62,4.88,10.75l52.31,134.86c1.99,5.13,3.64,9.94,3.67,10.69s-2.88,3.7-5.16,5.52-4.61,3.5-5.18,3.74-6.26-1.64-11.37-3.67l-683.6-271.86Z"/>
        <path class="cls-15" d="M457.36,1579.5c-4.04-3.73-8.45-8.88-9.81-11.44s10.26-7.42,15.64-8.58l348.14-75.25c5.38-1.16,13.52-2.86,18.1-3.78s12.2-1.96,12.59-1.93,2.13,1.44,3.15,2.65-2.26,8.73-5.2,13.38l-159.42,252.69c-2.94,4.65-5.85,8.85-6.48,9.33s-5.29-.01-8.69-.52-12.75,1.87-13.44,1.95-5.49-3.76-9.53-7.49l-185.06-171Z"/>
        <path class="cls-15" d="M1027.08,1772.34c-5.5-.07-14.5-.13-20-.14l-231.65-.14c-5.5,0-14.5-.14-19.99-.32l-64.61-1.68c-5.49-.24-11.01-.81-12.25-1.27s2.1-7.77,5.03-12.43l163.02-258.65c2.93-4.65,5.77-8.83,6.31-9.28s5.69-.74,9.87-.94,13.46-7.11,14.1-7.5,6.58,1.46,11.69,3.49l709.82,282.08c5.11,2.03,10.15,4.27,11.19,4.97s.93,3.61,.48,4.2-6.63,1.05-12.13,1.01l-570.89-3.39Z"/>
        <path class="cls-15" d="M1994.57,1542.68c4.61-3,8.35-.96,8.33,4.54l-.9,176.41c-.03,5.5-2.39,13.84-5.26,18.54l-78.17,129.73c-2.81,4.73-6.4,9.58-7.97,10.78s-9.28,1.82-9.8,1.91-2.55,1.95-3.74,3.26-2.68,2.69-3.32,3.05-6.52-1.69-11.55-3.89l-223.5-97.89c-5.04-2.21-9.67-4.58-10.3-5.28s-.03-4.43,.49-6.35,.28-7.75,.36-8.45,4.97-4.4,9.58-7.41l335.76-218.93Z"/>
        <path class="cls-13" d="M6.19,1875.15c-1.22,1.14-2.17-2.42-2.12-7.92l.22-23.84c.05-5.5,3.89-12.42,8.53-15.37l391.69-249.46c4.64-2.95,9.03-5.52,9.76-5.69s5.65,2.08,9.66,3.93c4.02,1.85,16.11-1.18,16.83-1.3s5.58,3.75,9.62,7.48l183.01,169.19c4.04,3.73,8.94,10.01,10.89,13.95s-12.46,9.64-17.89,10.49L20.88,1871.13c-5.43,.85-13.48,2.87-14.69,4.02Z"/>
        <path class="cls-10" d="M3.98,1621.18c0-3.86,.5-5.93,1.11-4.59s.61,4.5,0,7.03-1.11,1.43-1.11-2.44Z"/>
        <path class="cls-15" d="M1997.6,1752.88c2.8-4.73,5.09-4.11,5.08,1.39l-.23,237.27c0,5.5-4.51,10-10.01,10h-684.34c-5.5,0-14.49-.33-19.97-.74l-13.44-.99c-5.49-.41-5.56-1.63-.17-2.71l36.91-7.44c5.39-1.09,10.33-1.93,10.99-1.88s6.11,2.64,11.24,4.61l16.38-3c4.66-2.92,8.77-5.83,9.13-6.47s6.43-1.94,11.88-2.68l508.22-69.24c5.45-.74,10.42-1.28,11.05-1.19s6.31,.76,11.79,.36l17.23-13.67c1.08-5.39,1.66-10.4,1.29-11.12s2.37-6.46,5.17-11.19l71.78-121.31Z"/>
        <path class="cls-15" d="M1320.98,1970.95c-.74,.03-5.66-1.23-10.93-2.81l-617.1-184.87c-5.27-1.58-9.97-3.13-10.44-3.46s.37-1.71,.6-1.86,5.45-.24,10.95-.17l116.68,.94c5.5,.12,14.5,.24,20,.26l240.55,.81c5.5,.02,14.5,.24,19.99,.48l31.32,.68c5.49,.24,14.49,.41,19.99,.37l273.15,1.24c5.5,.04,14.5,.14,20,.22l157.49,.69c5.5-.03,11.66,.34,13.68,.83s-5.48,7.39-9.97,10.57l-231.24,163.83c-4.49,3.18-8.72,5.96-9.41,6.17s-6.64-1.66-11.91-3.25l-13.28,2.15c-4.4,3.3-9.38,7.15-10.12,7.19Z"/>
        <path class="cls-13" d="M518.95,1992.63c-2.91,4.66-9.8,8.49-15.3,8.49l-489.67,.42c-5.5,0-10-4.49-9.99-9.99l.1-100.44c0-5.5,4.46-10.69,9.89-11.54l610.82-95.4c5.43-.85,11.7-1.7,13.93-1.89s9.46,1.03,11.06,2.03l-.23,1.71-.06,.46c-.23,.46-2.85,4.62-5.83,9.24l-124.73,196.91Z"/>
        <path class="cls-13" d="M1229.15,1998.12c-5.4,1.03-12.82,2.22-16.49,2.65s-11.17,.78-16.67,.78l-666.66,.21c-5.5,0-7.56-3.78-4.57-8.39l123.19-190.48c2.99-4.62,5.91-8.77,6.49-9.23s5.59-.41,9.51-.32,13.33-5.71,13.88-6,6.4,1.08,11.67,2.66l615.26,184.24c5.27,1.58,11.03,3.67,12.81,4.66s-7.9,3.92-13.3,4.95l-75.12,14.28Z"/>
        <path class="cls-15" d="M1877.47,1892.87c5.04,2.21,10.25,4.94,11.58,6.07s-3.53,4.01-4.59,4.28-5.72,.82-7.59,.97-8.02,.91-13.47,1.65l-492.73,67c-5.45,.74-10.22,1.3-10.6,1.23s-.71-1.2-.65-1.5,4.23-3.48,8.72-6.66l240.6-170.34c4.49-3.18,8.72-5.95,9.39-6.17s5.15,1.29,8.63,2.46,13.3-1.83,13.82-1.99,5.98,1.91,11.02,4.11l225.87,98.87Z"/>
        <path class="cls-10" d="M1257.61,2000.31c3.92-.68,11.61-.9,17.09-.5l13.44,.99c5.49,.41,5.47,.74-.03,.74h-27.62c-5.5,0-6.8-.56-2.88-1.23Z"/>
        <path class="cls-10" d="M1212.66,2000.77c3.67-.43,8.58-.43,10.93,0s-.24,.78-5.74,.78h-1.86c-5.5,0-7-.35-3.33-.78Z"/>
      </g>
    </g>
  </g>
  <g id="Layer_1" data-name="Layer 1">
    <g class="cls-17">
      <path class="cls-9" d="M570.84,1146.39c15.93,0,28.85-12.92,28.85-28.85v-10.07c0-15.3,6.08-29.98,16.9-40.8l23.9-23.9,94.82,94.82c11.26,11.26,29.53,11.26,40.8,0s11.26-29.53,0-40.8l-94.83-94.83,94.81-94.8c11.26-11.26,11.26-29.53,0-40.8-11.26-11.26-29.53-11.26-40.8,0l-159.53,159.53c-21.73,21.73-33.89,51.22-33.79,81.94l.03,9.69c0,15.93,12.91,28.85,28.85,28.85Z"/>
      <path class="cls-9" d="M599.5,971.17v-84.38c0-15.94-12.92-28.87-28.87-28.87s-28.75,12.79-28.87,28.65l-.64,84.37c-.12,16.2,12.98,29.41,29.19,29.41,16.13,0,29.19-13.07,29.19-29.19Z"/>
      <path class="cls-9" d="M1090.07,1146.39c15.93,0,28.85-12.92,28.85-28.85v-10.07c0-15.3,6.07-29.98,16.9-40.8l23.9-23.9,94.83,94.82c11.26,11.26,29.52,11.26,40.8,0,11.26-11.26,11.26-29.53,0-40.8l-94.83-94.83,94.8-94.8c11.26-11.26,11.26-29.53,0-40.8-11.26-11.26-29.53-11.26-40.8,0l-159.53,159.53c-21.73,21.73-33.89,51.22-33.79,81.94l.03,9.69c0,15.93,12.92,28.85,28.85,28.85Z"/>
      <path class="cls-9" d="M1118.73,971.17v-84.38c0-15.94-12.92-28.87-28.86-28.87s-28.75,12.79-28.87,28.65l-.63,84.37c-.13,16.2,12.97,29.41,29.18,29.41,16.12,0,29.19-13.07,29.19-29.19Z"/>
      <path class="cls-9" d="M252.45,973.31v144.23c0,15.93,12.92,28.85,28.85,28.85s28.85-12.92,28.85-28.85v-144.23c0-31.86,25.83-57.69,57.69-57.69s57.69,25.83,57.69,57.69v144.23c0,15.93,12.92,28.85,28.85,28.85s28.85-12.92,28.85-28.85v-144.23c0-63.73-51.66-115.38-115.38-115.38s-115.38,51.66-115.38,115.38Z"/>
      <path class="cls-9" d="M1521.68,973.31v144.23c0,15.93,12.92,28.85,28.85,28.85s28.85-12.92,28.85-28.85v-144.23c0-31.86,25.83-57.69,57.69-57.69s57.69,25.83,57.69,57.69v144.23c0,15.93,12.92,28.85,28.85,28.85s28.85-12.92,28.85-28.85v-144.23c0-63.73-51.66-115.38-115.38-115.38s-115.38,51.66-115.38,115.38Z"/>
      <path class="cls-9" d="M887.06,915.62v-28.85c0-15.93,12.92-28.85,28.85-28.85s28.85,12.92,28.85,28.85v28.85h28.85c15.93,0,28.85,12.92,28.85,28.85s-12.92,28.85-28.85,28.85h-28.85v86.54c0,15.93,12.92,28.85,28.85,28.85s28.85,12.92,28.85,28.85-12.92,28.85-28.85,28.85h-28.85c-31.86,0-57.69-25.83-57.69-57.69v-115.38h-28.85c-15.93,0-28.85-12.92-28.85-28.85s12.92-28.85,28.85-28.85h28.85Z"/>
      <path class="cls-9" d="M1348.6,1088.69v-201.92c0-15.93,12.92-28.85,28.85-28.85s28.85,12.92,28.85,28.85v173.08c0,15.93,12.92,28.85,28.85,28.85s28.85,12.92,28.85,28.85-12.92,28.85-28.85,28.85h-28.85c-31.86,0-57.69-25.83-57.69-57.69Z"/>
    </g>
  </g>
</svg>